<svg width="137" height="38" viewBox="0 0 137 38" fill="none" xmlns="http://www.w3.org/2000/svg">
<g filter="url(#filter0_dd_316_175)">
<path fill-rule="evenodd" clip-rule="evenodd" d="M6 2C3.79086 2 2 3.79086 2 6V30C2 32.2091 3.79086 34 6 34H131C133.209 34 135 32.2091 135 30V6C135 3.79086 133.209 2 131 2H6Z" fill="url(#paint0_linear_316_175)"/>
</g>
<rect x="23" y="10" width="3" height="17" rx="1" fill="white"/>
<rect x="16" y="20" width="3" height="17" rx="1" transform="rotate(-90 16 20)" fill="white"/>
<path d="M43.471 15.825C44.321 15.825 45.006 15.96 45.526 16.23C46.046 16.49 46.306 16.84 46.306 17.28C46.306 17.5 46.241 17.695 46.111 17.865C45.981 18.025 45.811 18.105 45.601 18.105C45.441 18.105 45.311 18.085 45.211 18.045C45.111 17.995 45.011 17.935 44.911 17.865C44.821 17.785 44.731 17.72 44.641 17.67C44.541 17.62 44.391 17.575 44.191 17.535C44.001 17.495 43.846 17.475 43.726 17.475C42.976 17.475 42.386 17.71 41.956 18.18C41.536 18.64 41.326 19.245 41.326 19.995C41.326 20.715 41.541 21.315 41.971 21.795C42.401 22.265 42.951 22.5 43.621 22.5C44.111 22.5 44.476 22.44 44.716 22.32C44.776 22.29 44.856 22.24 44.956 22.17C45.066 22.09 45.166 22.03 45.256 21.99C45.346 21.95 45.456 21.93 45.586 21.93C45.836 21.93 46.031 22.01 46.171 22.17C46.321 22.33 46.396 22.535 46.396 22.785C46.396 23.025 46.256 23.25 45.976 23.46C45.696 23.67 45.326 23.84 44.866 23.97C44.406 24.09 43.916 24.15 43.396 24.15C42.626 24.15 41.946 23.97 41.356 23.61C40.776 23.25 40.326 22.755 40.006 22.125C39.686 21.485 39.526 20.775 39.526 19.995C39.526 19.185 39.691 18.465 40.021 17.835C40.361 17.205 40.831 16.715 41.431 16.365C42.031 16.005 42.711 15.825 43.471 15.825ZM51.8657 15.825C52.1657 15.825 52.4157 15.91 52.6157 16.08C52.8257 16.25 52.9307 16.45 52.9307 16.68C52.9307 16.99 52.8507 17.225 52.6907 17.385C52.5307 17.535 52.3407 17.61 52.1207 17.61C51.9707 17.61 51.8007 17.575 51.6107 17.505C51.5807 17.495 51.5107 17.475 51.4007 17.445C51.3007 17.415 51.1907 17.4 51.0707 17.4C50.8107 17.4 50.5607 17.48 50.3207 17.64C50.0807 17.8 49.8807 18.045 49.7207 18.375C49.5707 18.695 49.4957 19.08 49.4957 19.53V23.085C49.4957 23.345 49.4107 23.565 49.2407 23.745C49.0707 23.915 48.8557 24 48.5957 24C48.3357 24 48.1207 23.915 47.9507 23.745C47.7807 23.565 47.6957 23.345 47.6957 23.085V16.89C47.6957 16.63 47.7807 16.415 47.9507 16.245C48.1207 16.065 48.3357 15.975 48.5957 15.975C48.8557 15.975 49.0707 16.065 49.2407 16.245C49.4107 16.415 49.4957 16.63 49.4957 16.89V17.085C49.7257 16.675 50.0557 16.365 50.4857 16.155C50.9157 15.935 51.3757 15.825 51.8657 15.825ZM55.8946 23.085C55.8946 23.345 55.8096 23.565 55.6396 23.745C55.4696 23.915 55.2546 24 54.9946 24C54.7346 24 54.5196 23.915 54.3496 23.745C54.1796 23.565 54.0946 23.345 54.0946 23.085V16.89C54.0946 16.63 54.1796 16.415 54.3496 16.245C54.5196 16.065 54.7346 15.975 54.9946 15.975C55.2546 15.975 55.4696 16.065 55.6396 16.245C55.8096 16.415 55.8946 16.63 55.8946 16.89V23.085ZM54.9796 15C54.6396 15 54.3996 14.945 54.2596 14.835C54.1196 14.725 54.0496 14.53 54.0496 14.25V13.965C54.0496 13.685 54.1246 13.49 54.2746 13.38C54.4246 13.27 54.6646 13.215 54.9946 13.215C55.3446 13.215 55.5896 13.27 55.7296 13.38C55.8696 13.49 55.9396 13.685 55.9396 13.965V14.25C55.9396 14.54 55.8646 14.74 55.7146 14.85C55.5746 14.95 55.3296 15 54.9796 15ZM64.2395 15.825C64.4995 15.825 64.7145 15.91 64.8845 16.08C65.0545 16.25 65.1395 16.47 65.1395 16.74V23.085C65.1395 23.345 65.0545 23.565 64.8845 23.745C64.7145 23.915 64.4995 24 64.2395 24C63.9795 24 63.7645 23.915 63.5945 23.745C63.4345 23.575 63.3495 23.36 63.3395 23.1C63.0895 23.39 62.7495 23.64 62.3195 23.85C61.8995 24.05 61.4545 24.15 60.9845 24.15C60.2945 24.15 59.6695 23.975 59.1095 23.625C58.5495 23.265 58.1045 22.77 57.7745 22.14C57.4545 21.51 57.2945 20.795 57.2945 19.995C57.2945 19.195 57.4545 18.48 57.7745 17.85C58.0945 17.21 58.5295 16.715 59.0795 16.365C59.6395 16.005 60.2545 15.825 60.9245 15.825C61.4045 15.825 61.8545 15.915 62.2745 16.095C62.6945 16.265 63.0495 16.485 63.3395 16.755V16.74C63.3395 16.48 63.4245 16.265 63.5945 16.095C63.7645 15.915 63.9795 15.825 64.2395 15.825ZM61.2095 22.5C61.8595 22.5 62.3895 22.265 62.7995 21.795C63.2095 21.315 63.4145 20.715 63.4145 19.995C63.4145 19.275 63.2095 18.675 62.7995 18.195C62.3895 17.715 61.8595 17.475 61.2095 17.475C60.5695 17.475 60.0445 17.715 59.6345 18.195C59.2245 18.675 59.0195 19.275 59.0195 19.995C59.0195 20.715 59.2195 21.315 59.6195 21.795C60.0295 22.265 60.5595 22.5 61.2095 22.5ZM71.2602 15.825C71.5602 15.825 71.8102 15.91 72.0102 16.08C72.2202 16.25 72.3252 16.45 72.3252 16.68C72.3252 16.99 72.2452 17.225 72.0852 17.385C71.9252 17.535 71.7352 17.61 71.5152 17.61C71.3652 17.61 71.1952 17.575 71.0052 17.505C70.9752 17.495 70.9052 17.475 70.7952 17.445C70.6952 17.415 70.5852 17.4 70.4652 17.4C70.2052 17.4 69.9552 17.48 69.7152 17.64C69.4752 17.8 69.2752 18.045 69.1152 18.375C68.9652 18.695 68.8902 19.08 68.8902 19.53V23.085C68.8902 23.345 68.8052 23.565 68.6352 23.745C68.4652 23.915 68.2502 24 67.9902 24C67.7302 24 67.5152 23.915 67.3452 23.745C67.1752 23.565 67.0902 23.345 67.0902 23.085V16.89C67.0902 16.63 67.1752 16.415 67.3452 16.245C67.5152 16.065 67.7302 15.975 67.9902 15.975C68.2502 15.975 68.4652 16.065 68.6352 16.245C68.8052 16.415 68.8902 16.63 68.8902 16.89V17.085C69.1202 16.675 69.4502 16.365 69.8802 16.155C70.3102 15.935 70.7702 15.825 71.2602 15.825ZM81.6682 22.305C81.8082 22.305 81.9332 22.375 82.0432 22.515C82.1632 22.645 82.2232 22.82 82.2232 23.04C82.2232 23.31 82.0732 23.54 81.7732 23.73C81.4832 23.91 81.1532 24 80.7832 24C80.1632 24 79.6382 23.87 79.2082 23.61C78.7882 23.34 78.5782 22.775 78.5782 21.915V17.775H77.8882C77.6482 17.775 77.4482 17.695 77.2882 17.535C77.1282 17.375 77.0482 17.175 77.0482 16.935C77.0482 16.705 77.1282 16.515 77.2882 16.365C77.4482 16.205 77.6482 16.125 77.8882 16.125H78.5782V15.165C78.5782 14.905 78.6632 14.69 78.8332 14.52C79.0132 14.34 79.2332 14.25 79.4932 14.25C79.7432 14.25 79.9532 14.34 80.1232 14.52C80.2932 14.69 80.3782 14.905 80.3782 15.165V16.125H81.4432C81.6832 16.125 81.8832 16.205 82.0432 16.365C82.2032 16.525 82.2832 16.725 82.2832 16.965C82.2832 17.195 82.2032 17.39 82.0432 17.55C81.8832 17.7 81.6832 17.775 81.4432 17.775H80.3782V21.84C80.3782 22.05 80.4332 22.205 80.5432 22.305C80.6532 22.395 80.8032 22.44 80.9932 22.44C81.0732 22.44 81.1832 22.42 81.3232 22.38C81.4432 22.33 81.5582 22.305 81.6682 22.305ZM91.6459 19.995C91.6459 20.795 91.4659 21.515 91.1059 22.155C90.7459 22.785 90.2509 23.275 89.6209 23.625C89.0009 23.975 88.3159 24.15 87.5659 24.15C86.8059 24.15 86.1159 23.975 85.4959 23.625C84.8759 23.275 84.3859 22.785 84.0259 22.155C83.6659 21.515 83.4859 20.795 83.4859 19.995C83.4859 19.195 83.6659 18.48 84.0259 17.85C84.3859 17.21 84.8759 16.715 85.4959 16.365C86.1159 16.005 86.8059 15.825 87.5659 15.825C88.3159 15.825 89.0009 16.005 89.6209 16.365C90.2509 16.715 90.7459 17.21 91.1059 17.85C91.4659 18.48 91.6459 19.195 91.6459 19.995ZM89.8459 19.995C89.8459 19.505 89.7409 19.07 89.5309 18.69C89.3309 18.3 89.0559 18 88.7059 17.79C88.3659 17.58 87.9859 17.475 87.5659 17.475C87.1459 17.475 86.7609 17.58 86.4109 17.79C86.0709 18 85.7959 18.3 85.5859 18.69C85.3859 19.07 85.2859 19.505 85.2859 19.995C85.2859 20.485 85.3859 20.92 85.5859 21.3C85.7959 21.68 86.0709 21.975 86.4109 22.185C86.7609 22.395 87.1459 22.5 87.5659 22.5C87.9859 22.5 88.3659 22.395 88.7059 22.185C89.0559 21.975 89.3309 21.68 89.5309 21.3C89.7409 20.92 89.8459 20.485 89.8459 19.995ZM87.6409 15.465C87.5409 15.465 87.4309 15.42 87.3109 15.33C87.2009 15.24 87.1509 15.12 87.1609 14.97C87.1609 14.88 87.1909 14.785 87.2509 14.685L88.1209 13.155C88.2209 12.975 88.3409 12.83 88.4809 12.72C88.6209 12.61 88.7759 12.555 88.9459 12.555C89.2159 12.555 89.4159 12.625 89.5459 12.765C89.6859 12.905 89.7509 13.085 89.7409 13.305C89.7209 13.535 89.6259 13.75 89.4559 13.95L88.3159 15.21C88.1559 15.38 87.9309 15.465 87.6409 15.465ZM97.3048 15.825C97.9948 15.825 98.6198 16.005 99.1798 16.365C99.7398 16.715 100.18 17.205 100.5 17.835C100.83 18.465 100.995 19.18 100.995 19.98C100.995 20.78 100.835 21.5 100.515 22.14C100.195 22.77 99.7548 23.265 99.1948 23.625C98.6448 23.975 98.0348 24.15 97.3648 24.15C96.8848 24.15 96.4298 24.055 95.9998 23.865C95.5798 23.665 95.2298 23.425 94.9498 23.145V26.085C94.9498 26.345 94.8648 26.56 94.6948 26.73C94.5248 26.91 94.3098 27 94.0498 27C93.7898 27 93.5748 26.915 93.4048 26.745C93.2348 26.575 93.1498 26.355 93.1498 26.085V16.89C93.1498 16.63 93.2348 16.415 93.4048 16.245C93.5748 16.065 93.7898 15.975 94.0498 15.975C94.3098 15.975 94.5248 16.065 94.6948 16.245C94.8648 16.415 94.9498 16.63 94.9498 16.89V16.95C95.1898 16.65 95.5248 16.39 95.9548 16.17C96.3848 15.94 96.8348 15.825 97.3048 15.825ZM97.0798 22.5C97.7198 22.5 98.2448 22.26 98.6548 21.78C99.0648 21.3 99.2698 20.7 99.2698 19.98C99.2698 19.26 99.0648 18.665 98.6548 18.195C98.2548 17.715 97.7298 17.475 97.0798 17.475C96.4298 17.475 95.8998 17.715 95.4898 18.195C95.0798 18.665 94.8748 19.26 94.8748 19.98C94.8748 20.7 95.0798 21.3 95.4898 21.78C95.8998 22.26 96.4298 22.5 97.0798 22.5ZM104.191 23.085C104.191 23.345 104.106 23.565 103.936 23.745C103.766 23.915 103.551 24 103.291 24C103.031 24 102.816 23.915 102.646 23.745C102.476 23.565 102.391 23.345 102.391 23.085V16.89C102.391 16.63 102.476 16.415 102.646 16.245C102.816 16.065 103.031 15.975 103.291 15.975C103.551 15.975 103.766 16.065 103.936 16.245C104.106 16.415 104.191 16.63 104.191 16.89V23.085ZM103.276 15C102.936 15 102.696 14.945 102.556 14.835C102.416 14.725 102.346 14.53 102.346 14.25V13.965C102.346 13.685 102.421 13.49 102.571 13.38C102.721 13.27 102.961 13.215 103.291 13.215C103.641 13.215 103.886 13.27 104.026 13.38C104.166 13.49 104.236 13.685 104.236 13.965V14.25C104.236 14.54 104.161 14.74 104.011 14.85C103.871 14.95 103.626 15 103.276 15ZM109.535 15.825C110.385 15.825 111.07 15.96 111.59 16.23C112.11 16.49 112.37 16.84 112.37 17.28C112.37 17.5 112.305 17.695 112.175 17.865C112.045 18.025 111.875 18.105 111.665 18.105C111.505 18.105 111.375 18.085 111.275 18.045C111.175 17.995 111.075 17.935 110.975 17.865C110.885 17.785 110.795 17.72 110.705 17.67C110.605 17.62 110.455 17.575 110.255 17.535C110.065 17.495 109.91 17.475 109.79 17.475C109.04 17.475 108.45 17.71 108.02 18.18C107.6 18.64 107.39 19.245 107.39 19.995C107.39 20.715 107.605 21.315 108.035 21.795C108.465 22.265 109.015 22.5 109.685 22.5C110.175 22.5 110.54 22.44 110.78 22.32C110.84 22.29 110.92 22.24 111.02 22.17C111.13 22.09 111.23 22.03 111.32 21.99C111.41 21.95 111.52 21.93 111.65 21.93C111.9 21.93 112.095 22.01 112.235 22.17C112.385 22.33 112.46 22.535 112.46 22.785C112.46 23.025 112.32 23.25 112.04 23.46C111.76 23.67 111.39 23.84 110.93 23.97C110.47 24.09 109.98 24.15 109.46 24.15C108.69 24.15 108.01 23.97 107.42 23.61C106.84 23.25 106.39 22.755 106.07 22.125C105.75 21.485 105.59 20.775 105.59 19.995C105.59 19.185 105.755 18.465 106.085 17.835C106.425 17.205 106.895 16.715 107.495 16.365C108.095 16.005 108.775 15.825 109.535 15.825ZM121.47 19.995C121.47 20.795 121.29 21.515 120.93 22.155C120.57 22.785 120.075 23.275 119.445 23.625C118.825 23.975 118.14 24.15 117.39 24.15C116.63 24.15 115.94 23.975 115.32 23.625C114.7 23.275 114.21 22.785 113.85 22.155C113.49 21.515 113.31 20.795 113.31 19.995C113.31 19.195 113.49 18.48 113.85 17.85C114.21 17.21 114.7 16.715 115.32 16.365C115.94 16.005 116.63 15.825 117.39 15.825C118.14 15.825 118.825 16.005 119.445 16.365C120.075 16.715 120.57 17.21 120.93 17.85C121.29 18.48 121.47 19.195 121.47 19.995ZM119.67 19.995C119.67 19.505 119.565 19.07 119.355 18.69C119.155 18.3 118.88 18 118.53 17.79C118.19 17.58 117.81 17.475 117.39 17.475C116.97 17.475 116.585 17.58 116.235 17.79C115.895 18 115.62 18.3 115.41 18.69C115.21 19.07 115.11 19.505 115.11 19.995C115.11 20.485 115.21 20.92 115.41 21.3C115.62 21.68 115.895 21.975 116.235 22.185C116.585 22.395 116.97 22.5 117.39 22.5C117.81 22.5 118.19 22.395 118.53 22.185C118.88 21.975 119.155 21.68 119.355 21.3C119.565 20.92 119.67 20.485 119.67 19.995Z" fill="white"/>
<defs>
<filter id="filter0_dd_316_175" x="0" y="0" width="137" height="38" filterUnits="userSpaceOnUse" color-interpolation-filters="sRGB">
<feFlood flood-opacity="0" result="BackgroundImageFix"/>
<feColorMatrix in="SourceAlpha" type="matrix" values="0 0 0 0 0 0 0 0 0 0 0 0 0 0 0 0 0 0 127 0" result="hardAlpha"/>
<feOffset dy="2"/>
<feGaussianBlur stdDeviation="1"/>
<feColorMatrix type="matrix" values="0 0 0 0 0 0 0 0 0 0 0 0 0 0 0 0 0 0 0.24 0"/>
<feBlend mode="normal" in2="BackgroundImageFix" result="effect1_dropShadow_316_175"/>
<feColorMatrix in="SourceAlpha" type="matrix" values="0 0 0 0 0 0 0 0 0 0 0 0 0 0 0 0 0 0 127 0" result="hardAlpha"/>
<feOffset/>
<feGaussianBlur stdDeviation="1"/>
<feColorMatrix type="matrix" values="0 0 0 0 0 0 0 0 0 0 0 0 0 0 0 0 0 0 0.12 0"/>
<feBlend mode="normal" in2="effect1_dropShadow_316_175" result="effect2_dropShadow_316_175"/>
<feBlend mode="normal" in="SourceGraphic" in2="effect2_dropShadow_316_175" result="shape"/>
</filter>
<linearGradient id="paint0_linear_316_175" x1="68.5" y1="2" x2="68.5" y2="34" gradientUnits="userSpaceOnUse">
<stop stop-color="#FEB254"/>
<stop offset="1" stop-color="#F0813D"/>
</linearGradient>
</defs>
</svg>
