<svg width="120" height="31" viewBox="0 0 120 31" fill="none" xmlns="http://www.w3.org/2000/svg">
<rect width="120" height="31" rx="4" fill="#ED7839"/>
<path d="M37.5312 21V9.625H40.8906C41.8958 9.625 42.7865 9.84896 43.5625 10.2969C44.3438 10.7448 44.9479 11.3802 45.375 12.2031C45.8021 13.026 46.0156 13.9688 46.0156 15.0312V15.6016C46.0156 16.6797 45.7995 17.6276 45.3672 18.4453C44.9401 19.263 44.3281 19.8932 43.5312 20.3359C42.7396 20.7786 41.8307 21 40.8047 21H37.5312ZM39.5078 11.2188V19.4219H40.7969C41.8333 19.4219 42.6276 19.099 43.1797 18.4531C43.737 17.8021 44.0208 16.8698 44.0312 15.6562V15.0234C44.0312 13.7891 43.763 12.8464 43.2266 12.1953C42.6901 11.5443 41.9115 11.2188 40.8906 11.2188H39.5078ZM47.4453 16.6953C47.4453 15.8672 47.6094 15.1224 47.9375 14.4609C48.2656 13.7943 48.7266 13.2839 49.3203 12.9297C49.9141 12.5703 50.5964 12.3906 51.3672 12.3906C52.5078 12.3906 53.4323 12.7578 54.1406 13.4922C54.8542 14.2266 55.2396 15.2005 55.2969 16.4141L55.3047 16.8594C55.3047 17.6927 55.1432 18.4375 54.8203 19.0938C54.5026 19.75 54.0443 20.2578 53.4453 20.6172C52.8516 20.9766 52.1641 21.1562 51.3828 21.1562C50.1901 21.1562 49.2344 20.7604 48.5156 19.9688C47.8021 19.1719 47.4453 18.112 47.4453 16.7891V16.6953ZM49.3438 16.8594C49.3438 17.7292 49.5234 18.4115 49.8828 18.9062C50.2422 19.3958 50.7422 19.6406 51.3828 19.6406C52.0234 19.6406 52.5208 19.3906 52.875 18.8906C53.2344 18.3906 53.4141 17.6589 53.4141 16.6953C53.4141 15.8411 53.2292 15.1641 52.8594 14.6641C52.4948 14.1641 51.9974 13.9141 51.3672 13.9141C50.7474 13.9141 50.2552 14.1615 49.8906 14.6562C49.526 15.1458 49.3438 15.8802 49.3438 16.8594ZM64.3359 18.3828L65.6797 12.5469H67.5312L65.2266 21H63.6641L61.8516 15.1953L60.0703 21H58.5078L56.1953 12.5469H58.0469L59.4141 18.3203L61.1484 12.5469H62.5781L64.3359 18.3828ZM70.5625 12.5469L70.6172 13.5234C71.2422 12.7682 72.0625 12.3906 73.0781 12.3906C74.8385 12.3906 75.7344 13.3984 75.7656 15.4141V21H73.8672V15.5234C73.8672 14.987 73.75 14.5911 73.5156 14.3359C73.2865 14.0755 72.9089 13.9453 72.3828 13.9453C71.6172 13.9453 71.0469 14.2917 70.6719 14.9844V21H68.7734V12.5469H70.5625ZM79.7266 21H77.8281V9H79.7266V21ZM81.4453 16.6953C81.4453 15.8672 81.6094 15.1224 81.9375 14.4609C82.2656 13.7943 82.7266 13.2839 83.3203 12.9297C83.9141 12.5703 84.5964 12.3906 85.3672 12.3906C86.5078 12.3906 87.4323 12.7578 88.1406 13.4922C88.8542 14.2266 89.2396 15.2005 89.2969 16.4141L89.3047 16.8594C89.3047 17.6927 89.1432 18.4375 88.8203 19.0938C88.5026 19.75 88.0443 20.2578 87.4453 20.6172C86.8516 20.9766 86.1641 21.1562 85.3828 21.1562C84.1901 21.1562 83.2344 20.7604 82.5156 19.9688C81.8021 19.1719 81.4453 18.112 81.4453 16.7891V16.6953ZM83.3438 16.8594C83.3438 17.7292 83.5234 18.4115 83.8828 18.9062C84.2422 19.3958 84.7422 19.6406 85.3828 19.6406C86.0234 19.6406 86.5208 19.3906 86.875 18.8906C87.2344 18.3906 87.4141 17.6589 87.4141 16.6953C87.4141 15.8411 87.2292 15.1641 86.8594 14.6641C86.4948 14.1641 85.9974 13.9141 85.3672 13.9141C84.7474 13.9141 84.2552 14.1615 83.8906 14.6562C83.526 15.1458 83.3438 15.8802 83.3438 16.8594ZM95.9609 21C95.8776 20.8385 95.8047 20.5755 95.7422 20.2109C95.138 20.8411 94.3984 21.1562 93.5234 21.1562C92.6745 21.1562 91.9818 20.9141 91.4453 20.4297C90.9089 19.9453 90.6406 19.3464 90.6406 18.6328C90.6406 17.7318 90.974 17.0417 91.6406 16.5625C92.3125 16.0781 93.2708 15.8359 94.5156 15.8359H95.6797V15.2812C95.6797 14.8438 95.5573 14.4948 95.3125 14.2344C95.0677 13.9688 94.6953 13.8359 94.1953 13.8359C93.763 13.8359 93.4089 13.9453 93.1328 14.1641C92.8568 14.3776 92.7188 14.651 92.7188 14.9844H90.8203C90.8203 14.5208 90.974 14.0885 91.2812 13.6875C91.5885 13.2812 92.0052 12.9635 92.5312 12.7344C93.0625 12.5052 93.6536 12.3906 94.3047 12.3906C95.2943 12.3906 96.0833 12.6406 96.6719 13.1406C97.2604 13.6354 97.5625 14.3333 97.5781 15.2344V19.0469C97.5781 19.8073 97.6849 20.4141 97.8984 20.8672V21H95.9609ZM93.875 19.6328C94.25 19.6328 94.6016 19.5417 94.9297 19.3594C95.263 19.1771 95.513 18.9323 95.6797 18.625V17.0312H94.6562C93.9531 17.0312 93.4245 17.1536 93.0703 17.3984C92.7161 17.6432 92.5391 17.9896 92.5391 18.4375C92.5391 18.8021 92.6589 19.0938 92.8984 19.3125C93.1432 19.526 93.4688 19.6328 93.875 19.6328ZM99.2109 16.7109C99.2109 15.4089 99.513 14.3646 100.117 13.5781C100.721 12.7865 101.531 12.3906 102.547 12.3906C103.443 12.3906 104.167 12.7031 104.719 13.3281V9H106.617V21H104.898L104.805 20.125C104.237 20.8125 103.479 21.1562 102.531 21.1562C101.542 21.1562 100.74 20.7578 100.125 19.9609C99.5156 19.1641 99.2109 18.0807 99.2109 16.7109ZM101.109 16.875C101.109 17.7344 101.273 18.4062 101.602 18.8906C101.935 19.3698 102.406 19.6094 103.016 19.6094C103.792 19.6094 104.359 19.263 104.719 18.5703V14.9609C104.37 14.2839 103.807 13.9453 103.031 13.9453C102.417 13.9453 101.943 14.1901 101.609 14.6797C101.276 15.1641 101.109 15.8958 101.109 16.875Z" fill="white"/>
<path d="M18.75 6H21.25C21.4583 6 21.6354 6.07292 21.7812 6.21875C21.9271 6.36458 22 6.54167 22 6.75V12H24.75C25.0208 12 25.2083 12.1354 25.3125 12.4062C25.4167 12.6562 25.375 12.875 25.1875 13.0625L20.4375 17.8125C20.3125 17.9375 20.1667 18 20 18C19.8333 18 19.6875 17.9375 19.5625 17.8125L14.8125 13.0625C14.625 12.875 14.5833 12.6562 14.6875 12.4062C14.7917 12.1354 14.9792 12 15.25 12H18V6.75C18 6.54167 18.0729 6.36458 18.2188 6.21875C18.3646 6.07292 18.5417 6 18.75 6ZM28 17.75V21.25C28 21.4583 27.9271 21.6354 27.7812 21.7812C27.6354 21.9271 27.4583 22 27.25 22H12.75C12.5417 22 12.3646 21.9271 12.2188 21.7812C12.0729 21.6354 12 21.4583 12 21.25V17.75C12 17.5417 12.0729 17.3646 12.2188 17.2188C12.3646 17.0729 12.5417 17 12.75 17H17.3438L18.875 18.5312C19.1875 18.8438 19.5625 19 20 19C20.4375 19 20.8125 18.8438 21.125 18.5312L22.6562 17H27.25C27.4583 17 27.6354 17.0729 27.7812 17.2188C27.9271 17.3646 28 17.5417 28 17.75ZM23.9375 20.9375C24.0625 20.8125 24.125 20.6667 24.125 20.5C24.125 20.3333 24.0625 20.1875 23.9375 20.0625C23.8125 19.9375 23.6667 19.875 23.5 19.875C23.3333 19.875 23.1875 19.9375 23.0625 20.0625C22.9375 20.1875 22.875 20.3333 22.875 20.5C22.875 20.6667 22.9375 20.8125 23.0625 20.9375C23.1875 21.0625 23.3333 21.125 23.5 21.125C23.6667 21.125 23.8125 21.0625 23.9375 20.9375ZM25.9375 20.9375C26.0625 20.8125 26.125 20.6667 26.125 20.5C26.125 20.3333 26.0625 20.1875 25.9375 20.0625C25.8125 19.9375 25.6667 19.875 25.5 19.875C25.3333 19.875 25.1875 19.9375 25.0625 20.0625C24.9375 20.1875 24.875 20.3333 24.875 20.5C24.875 20.6667 24.9375 20.8125 25.0625 20.9375C25.1875 21.0625 25.3333 21.125 25.5 21.125C25.6667 21.125 25.8125 21.0625 25.9375 20.9375Z" fill="white"/>
</svg>
