<svg width="43" height="31" viewBox="0 0 43 31" fill="none" xmlns="http://www.w3.org/2000/svg">
<rect width="43" height="31" rx="4" fill="#ED7839"/>
<path d="M20.5138 6.5625C20.7013 6.1875 21.0033 6 21.42 6C21.8367 6 22.1388 6.1875 22.3263 6.5625L24.3575 10.6875L28.92 11.375C29.3367 11.4167 29.6075 11.6354 29.7325 12.0312C29.8575 12.4271 29.7742 12.7708 29.4825 13.0625L26.17 16.2812L26.9513 20.8438C27.0138 21.2396 26.8783 21.5521 26.545 21.7812C26.2117 22.0312 25.8679 22.0625 25.5138 21.875L21.42 19.75L17.3263 21.875C16.9721 22.0833 16.6283 22.0625 16.295 21.8125C15.9617 21.5625 15.8263 21.2396 15.8888 20.8438L16.67 16.2812L13.3575 13.0625C13.0658 12.7708 12.9825 12.4271 13.1075 12.0312C13.2325 11.6354 13.5033 11.4167 13.92 11.375L18.4825 10.6875L20.5138 6.5625Z" fill="white"/>
</svg>
