<svg width="51" height="49" viewBox="0 0 51 49" fill="none" xmlns="http://www.w3.org/2000/svg">
<path d="M11.8603 18.0563C19.8603 16.0563 20.8603 8.55636 25.3603 3.55638C33.9103 -5.94368 47.1802 5.55627 41.8603 15.0563C38.3624 21.3025 53.3603 21.5563 50.3603 38.0563C47.3603 54.5563 28.8603 49.0563 25.3603 42.5563C21.8603 36.0563 16.3603 41.5563 5.86026 38.0563C-4.63974 34.5563 1.86026 20.5563 11.8603 18.0563Z" fill="#F4F4F4"/>
<path d="M40.1414 33.688H32.922C30.9315 33.688 29.3132 35.3063 29.3132 37.2967V39.2655C29.3132 39.8088 29.7542 40.2498 30.2976 40.2498H42.7657C43.3091 40.2498 43.7501 39.8088 43.7501 39.2655V37.2967C43.7501 35.3063 42.1318 33.688 40.1414 33.688Z" fill="#4D4D4D"/>
<path d="M23.0781 33.688H15.8587C13.8683 33.688 12.25 35.3063 12.25 37.2967V39.2655C12.25 39.8088 12.691 40.2498 13.2344 40.2498H25.7025C26.2458 40.2498 26.6868 39.8088 26.6868 39.2655V37.2967C26.6868 35.3063 25.0685 33.688 23.0781 33.688Z" fill="#4D4D4D"/>
<path d="M36.5305 31.0618C38.7051 31.0618 40.468 29.2989 40.468 27.1243C40.468 24.9496 38.7051 23.1868 36.5305 23.1868C34.3559 23.1868 32.593 24.9496 32.593 27.1243C32.593 29.2989 34.3559 31.0618 36.5305 31.0618Z" fill="#4D4D4D"/>
<path d="M19.4695 31.0618C21.6441 31.0618 23.407 29.2989 23.407 27.1243C23.407 24.9496 21.6441 23.1868 19.4695 23.1868C17.2949 23.1868 15.532 24.9496 15.532 27.1243C15.532 29.2989 17.2949 31.0618 19.4695 31.0618Z" fill="#4D4D4D"/>
<path d="M30.6775 22.1001V23.0451C30.6775 23.8464 30.0219 24.502 29.2068 24.502H26.7912C26.0824 24.502 25.3205 23.9763 25.3205 22.8088V22.1001H30.6775Z" fill="#F0A880"/>
<path d="M33.9063 14.6186C33.9063 16.3905 33.1188 18.0443 31.7407 19.1605C31.1894 19.6074 30.8351 20.1843 30.7169 20.7887H25.297C25.2044 20.1981 24.8776 19.6468 24.3382 19.2275C22.8813 18.0856 22.0544 16.3669 22.0938 14.5025C22.1588 11.3781 24.7713 8.79311 27.9075 8.75373C29.4963 8.71436 31.0182 9.33058 32.16 10.4606C33.2901 11.5612 33.9063 13.0436 33.9063 14.6186Z" fill="#F0A880"/>
</svg>
