<svg xmlns="http://www.w3.org/2000/svg" xmlns:xlink="http://www.w3.org/1999/xlink" width="15" height="15" viewBox="0 0 12 12" version="1.1"><g id="surface1"><path style=" stroke:none;fill-rule:nonzero;fill:rgb(92.941176%,47.058824%,22.352941%);fill-opacity:1;" d="M 11.804688 4.191406 C 11.910156 4.296875 11.960938 4.421875 11.960938 4.570312 C 11.960938 4.722656 11.910156 4.847656 11.804688 4.949219 L 5.199219 11.558594 C 5.09375 11.664062 4.96875 11.714844 4.820312 11.714844 C 4.667969 11.714844 4.542969 11.664062 4.441406 11.558594 L 0.691406 7.808594 C 0.585938 7.703125 0.535156 7.578125 0.535156 7.429688 C 0.535156 7.277344 0.585938 7.152344 0.691406 7.050781 L 1.582031 6.15625 C 1.6875 6.050781 1.8125 6 1.960938 6 C 2.113281 6 2.238281 6.050781 2.339844 6.15625 L 4.820312 8.65625 L 10.175781 3.300781 C 10.265625 3.195312 10.382812 3.144531 10.535156 3.144531 C 10.683594 3.144531 10.808594 3.195312 10.914062 3.300781 Z M 4.574219 6.558594 L 2.074219 4.058594 C 1.894531 3.878906 1.894531 3.707031 2.074219 3.542969 L 3.078125 2.539062 C 3.152344 2.464844 3.234375 2.429688 3.324219 2.429688 C 3.429688 2.429688 3.519531 2.464844 3.589844 2.539062 L 4.820312 3.769531 L 8.210938 0.398438 C 8.273438 0.324219 8.347656 0.285156 8.433594 0.285156 C 8.539062 0.285156 8.628906 0.324219 8.703125 0.398438 L 9.707031 1.402344 C 9.886719 1.566406 9.886719 1.738281 9.707031 1.914062 L 5.066406 6.558594 C 5.003906 6.632812 4.925781 6.667969 4.820312 6.667969 C 4.714844 6.667969 4.632812 6.632812 4.574219 6.558594 Z M 4.574219 6.558594 " /></g></svg>