<svg width="38" height="11" viewBox="0 0 38 11" fill="none" xmlns="http://www.w3.org/2000/svg">
<path d="M9.52091 8.908C9.56758 9.02933 9.59091 9.14133 9.59091 9.244C9.59091 9.48667 9.51158 9.68733 9.35291 9.846C9.19425 9.99533 9.01225 10.07 8.80691 10.07C8.63891 10.07 8.48491 10.0187 8.34491 9.916C8.21425 9.81333 8.11158 9.67333 8.03691 9.496L7.30891 7.802H3.13691L2.40891 9.51C2.34358 9.68733 2.24091 9.82733 2.10091 9.93C1.97025 10.0233 1.82558 10.07 1.66691 10.07C1.42425 10.07 1.23758 10.0047 1.10691 9.874C0.985579 9.74333 0.924912 9.566 0.924912 9.342C0.924912 9.258 0.938912 9.16933 0.966912 9.076L4.45291 0.704C4.52758 0.517333 4.63958 0.372666 4.78891 0.269999C4.93825 0.167333 5.10625 0.125333 5.29291 0.143999C5.46091 0.143999 5.61491 0.195333 5.75491 0.298C5.90425 0.391333 6.01158 0.526666 6.07691 0.704L9.52091 8.908ZM6.62291 6.192L5.20891 2.916L3.82291 6.192H6.62291ZM16.0576 2.51C16.3003 2.51 16.5009 2.594 16.6596 2.762C16.8183 2.92067 16.8976 3.12133 16.8976 3.364V6.92C16.8976 7.928 16.6176 8.71667 16.0576 9.286C15.5069 9.85533 14.7183 10.14 13.6916 10.14C12.6649 10.14 11.8763 9.85533 11.3256 9.286C10.7749 8.71667 10.4996 7.928 10.4996 6.92V3.364C10.4996 3.12133 10.5789 2.92067 10.7376 2.762C10.8963 2.594 11.0969 2.51 11.3396 2.51C11.5823 2.51 11.7829 2.594 11.9416 2.762C12.1003 2.92067 12.1796 3.12133 12.1796 3.364V6.92C12.1796 7.48933 12.3056 7.914 12.5576 8.194C12.8096 8.46467 13.1876 8.6 13.6916 8.6C14.2049 8.6 14.5876 8.46467 14.8396 8.194C15.0916 7.914 15.2176 7.48933 15.2176 6.92V3.364C15.2176 3.12133 15.2969 2.92067 15.4556 2.762C15.6143 2.594 15.8149 2.51 16.0576 2.51ZM22.3284 8.418C22.4591 8.418 22.5757 8.48333 22.6784 8.614C22.7904 8.73533 22.8464 8.89867 22.8464 9.104C22.8464 9.356 22.7064 9.57067 22.4264 9.748C22.1557 9.916 21.8477 10 21.5024 10C20.9237 10 20.4337 9.87867 20.0324 9.636C19.6404 9.384 19.4444 8.85667 19.4444 8.054V4.19H18.8004C18.5764 4.19 18.3897 4.11533 18.2404 3.966C18.0911 3.81667 18.0164 3.63 18.0164 3.406C18.0164 3.19133 18.0911 3.014 18.2404 2.874C18.3897 2.72467 18.5764 2.65 18.8004 2.65H19.4444V1.754C19.4444 1.51133 19.5237 1.31067 19.6824 1.152C19.8504 0.984 20.0557 0.899999 20.2984 0.899999C20.5317 0.899999 20.7277 0.984 20.8864 1.152C21.0451 1.31067 21.1244 1.51133 21.1244 1.754V2.65H22.1184C22.3424 2.65 22.5291 2.72467 22.6784 2.874C22.8277 3.02333 22.9024 3.21 22.9024 3.434C22.9024 3.64867 22.8277 3.83067 22.6784 3.98C22.5291 4.12 22.3424 4.19 22.1184 4.19H21.1244V7.984C21.1244 8.18 21.1757 8.32467 21.2784 8.418C21.3811 8.502 21.5211 8.544 21.6984 8.544C21.7731 8.544 21.8757 8.52533 22.0064 8.488C22.1184 8.44133 22.2257 8.418 22.3284 8.418ZM31.5726 6.262C31.5726 7.00867 31.4046 7.68067 31.0686 8.278C30.7326 8.866 30.2706 9.32333 29.6826 9.65C29.1039 9.97667 28.4646 10.14 27.7646 10.14C27.0552 10.14 26.4112 9.97667 25.8326 9.65C25.2539 9.32333 24.7966 8.866 24.4606 8.278C24.1246 7.68067 23.9566 7.00867 23.9566 6.262C23.9566 5.51533 24.1246 4.848 24.4606 4.26C24.7966 3.66267 25.2539 3.20067 25.8326 2.874C26.4112 2.538 27.0552 2.37 27.7646 2.37C28.4646 2.37 29.1039 2.538 29.6826 2.874C30.2706 3.20067 30.7326 3.66267 31.0686 4.26C31.4046 4.848 31.5726 5.51533 31.5726 6.262ZM29.8926 6.262C29.8926 5.80467 29.7946 5.39867 29.5986 5.044C29.4119 4.68 29.1552 4.4 28.8286 4.204C28.5112 4.008 28.1566 3.91 27.7646 3.91C27.3726 3.91 27.0132 4.008 26.6866 4.204C26.3692 4.4 26.1126 4.68 25.9166 5.044C25.7299 5.39867 25.6366 5.80467 25.6366 6.262C25.6366 6.71933 25.7299 7.12533 25.9166 7.48C26.1126 7.83467 26.3692 8.11 26.6866 8.306C27.0132 8.502 27.3726 8.6 27.7646 8.6C28.1566 8.6 28.5112 8.502 28.8286 8.306C29.1552 8.11 29.4119 7.83467 29.5986 7.48C29.7946 7.12533 29.8926 6.71933 29.8926 6.262ZM36.8682 2.37C37.1482 2.37 37.3815 2.44933 37.5682 2.608C37.7642 2.76667 37.8622 2.95333 37.8622 3.168C37.8622 3.45733 37.7875 3.67667 37.6382 3.826C37.4888 3.966 37.3115 4.036 37.1062 4.036C36.9662 4.036 36.8075 4.00333 36.6302 3.938C36.6022 3.92867 36.5368 3.91 36.4342 3.882C36.3408 3.854 36.2382 3.84 36.1262 3.84C35.8835 3.84 35.6502 3.91467 35.4262 4.064C35.2022 4.21333 35.0155 4.442 34.8662 4.75C34.7262 5.04867 34.6562 5.408 34.6562 5.828V9.146C34.6562 9.38867 34.5768 9.594 34.4182 9.762C34.2595 9.92067 34.0588 10 33.8162 10C33.5735 10 33.3728 9.92067 33.2142 9.762C33.0555 9.594 32.9762 9.38867 32.9762 9.146V3.364C32.9762 3.12133 33.0555 2.92067 33.2142 2.762C33.3728 2.594 33.5735 2.51 33.8162 2.51C34.0588 2.51 34.2595 2.594 34.4182 2.762C34.5768 2.92067 34.6562 3.12133 34.6562 3.364V3.546C34.8708 3.16333 35.1788 2.874 35.5802 2.678C35.9815 2.47267 36.4108 2.37 36.8682 2.37Z" fill="#ED7839"/>
</svg>
