<svg width="165" height="25" viewBox="0 0 165 25" fill="none" xmlns="http://www.w3.org/2000/svg">
<circle cx="2" cy="19" r="2" fill="#ED7839"/>
<circle cx="2" cy="12" r="2" fill="#ED7839"/>
<circle cx="2" cy="5" r="2" fill="#ED7839"/>
<path d="M107.912 17V8.23633C107.753 8.37305 107.573 8.50521 107.372 8.63281C107.176 8.76042 106.973 8.88118 106.764 8.99512C106.559 9.10449 106.351 9.20475 106.142 9.2959C105.937 9.38249 105.745 9.4554 105.567 9.51465V8.74219C106.105 8.56901 106.618 8.33203 107.105 8.03125C107.598 7.72591 108.074 7.375 108.534 6.97852H108.787V17H107.912ZM118.692 10.8955C118.487 10.7451 118.223 10.6699 117.899 10.6699C117.667 10.6699 117.462 10.7155 117.284 10.8066C117.106 10.8932 116.949 11.0117 116.812 11.1621C116.68 11.3125 116.566 11.488 116.471 11.6885C116.38 11.8844 116.304 12.0895 116.245 12.3037C116.19 12.5179 116.149 12.7344 116.122 12.9531C116.099 13.1719 116.088 13.3792 116.088 13.5752V17H115.22V10H116.088V11.4971H116.115C116.197 11.2419 116.3 11.014 116.423 10.8135C116.55 10.6084 116.696 10.4375 116.86 10.3008C117.024 10.1595 117.202 10.0524 117.394 9.97949C117.59 9.90658 117.795 9.87012 118.009 9.87012C118.15 9.87012 118.275 9.87923 118.385 9.89746C118.499 9.91569 118.601 9.94303 118.692 9.97949V10.8955ZM120.189 13.6572C120.194 14.0856 120.251 14.4707 120.36 14.8125C120.47 15.1543 120.627 15.4437 120.832 15.6807C121.037 15.9176 121.285 16.0999 121.577 16.2275C121.873 16.3506 122.206 16.4121 122.575 16.4121C123.364 16.4121 124.109 16.1364 124.811 15.585V16.4463C124.141 16.9248 123.329 17.1641 122.377 17.1641C121.908 17.1641 121.481 17.082 121.099 16.918C120.716 16.7539 120.39 16.5169 120.121 16.207C119.852 15.8926 119.645 15.5075 119.499 15.0518C119.353 14.596 119.28 14.0765 119.28 13.4932C119.28 12.9691 119.36 12.4837 119.52 12.0371C119.679 11.5905 119.9 11.2054 120.183 10.8818C120.465 10.5537 120.8 10.2985 121.188 10.1162C121.575 9.92936 121.999 9.83594 122.459 9.83594C122.91 9.83594 123.309 9.91569 123.655 10.0752C124.002 10.2301 124.291 10.4535 124.523 10.7451C124.76 11.0368 124.94 11.3923 125.063 11.8115C125.187 12.2308 125.248 12.7002 125.248 13.2197V13.6572H120.189ZM124.346 12.8916C124.332 12.1624 124.159 11.5973 123.826 11.1963C123.493 10.7952 123.031 10.5947 122.438 10.5947C122.142 10.5947 121.867 10.6471 121.611 10.752C121.361 10.8568 121.14 11.0094 120.948 11.21C120.757 11.4059 120.597 11.6475 120.47 11.9346C120.347 12.2171 120.26 12.5361 120.21 12.8916H124.346ZM126.567 15.7422C126.7 15.847 126.843 15.9404 126.998 16.0225C127.153 16.1045 127.312 16.1751 127.477 16.2344C127.641 16.2936 127.805 16.3392 127.969 16.3711C128.137 16.3984 128.297 16.4121 128.447 16.4121C129.486 16.4121 130.006 16.0225 130.006 15.2432C130.006 15.0654 129.969 14.9128 129.896 14.7852C129.824 14.653 129.719 14.5345 129.582 14.4297C129.445 14.3203 129.281 14.2201 129.09 14.1289C128.898 14.0378 128.682 13.9421 128.44 13.8418C128.117 13.7096 127.839 13.5752 127.606 13.4385C127.374 13.3018 127.183 13.1536 127.032 12.9941C126.882 12.8301 126.77 12.6523 126.697 12.4609C126.624 12.265 126.588 12.0439 126.588 11.7979C126.588 11.488 126.654 11.2122 126.786 10.9707C126.923 10.7292 127.105 10.5241 127.333 10.3555C127.561 10.1868 127.823 10.0592 128.119 9.97266C128.42 9.88151 128.734 9.83594 129.062 9.83594C129.669 9.83594 130.197 9.94987 130.648 10.1777V11.1006C130.124 10.7633 129.559 10.5947 128.953 10.5947C128.734 10.5947 128.534 10.6221 128.352 10.6768C128.174 10.7314 128.021 10.8089 127.894 10.9092C127.766 11.0094 127.666 11.1302 127.593 11.2715C127.524 11.4082 127.49 11.5609 127.49 11.7295C127.49 11.9027 127.518 12.0553 127.572 12.1875C127.627 12.3151 127.711 12.4313 127.825 12.5361C127.944 12.641 128.094 12.7412 128.276 12.8369C128.463 12.9326 128.689 13.0352 128.953 13.1445C129.29 13.2812 129.582 13.418 129.828 13.5547C130.074 13.6868 130.277 13.8327 130.437 13.9922C130.596 14.1471 130.715 14.3226 130.792 14.5186C130.869 14.71 130.908 14.9333 130.908 15.1885C130.908 15.5029 130.842 15.7832 130.71 16.0293C130.582 16.2754 130.402 16.4827 130.17 16.6514C129.942 16.82 129.673 16.9476 129.363 17.0342C129.053 17.1208 128.716 17.1641 128.352 17.1641C127.645 17.1641 127.05 17.016 126.567 16.7197V15.7422ZM133.526 15.8721V20.2197H132.651V10H133.526V11.3398H133.554C133.813 10.8522 134.16 10.4808 134.593 10.2256C135.03 9.96582 135.522 9.83594 136.069 9.83594C136.516 9.83594 136.915 9.91797 137.266 10.082C137.621 10.2415 137.92 10.4694 138.161 10.7656C138.407 11.0618 138.594 11.4219 138.722 11.8457C138.854 12.2695 138.92 12.7458 138.92 13.2744C138.92 13.8532 138.847 14.3818 138.701 14.8604C138.555 15.3343 138.346 15.7422 138.072 16.084C137.799 16.4258 137.466 16.6924 137.074 16.8838C136.687 17.0706 136.249 17.1641 135.762 17.1641C134.777 17.1641 134.041 16.7334 133.554 15.8721H133.526ZM133.526 14.0879C133.526 14.4069 133.579 14.7077 133.684 14.9902C133.793 15.2682 133.943 15.5143 134.135 15.7285C134.326 15.9382 134.556 16.1045 134.825 16.2275C135.099 16.3506 135.399 16.4121 135.728 16.4121C136.078 16.4121 136.395 16.3392 136.678 16.1934C136.96 16.043 137.2 15.8311 137.396 15.5576C137.596 15.2842 137.749 14.9538 137.854 14.5664C137.963 14.179 138.018 13.7461 138.018 13.2676C138.018 12.8574 137.967 12.4883 137.867 12.1602C137.767 11.8275 137.623 11.5449 137.437 11.3125C137.254 11.0801 137.031 10.9023 136.767 10.7793C136.507 10.6562 136.215 10.5947 135.892 10.5947C135.527 10.5947 135.199 10.6631 134.907 10.7998C134.616 10.932 134.367 11.1143 134.162 11.3467C133.957 11.5791 133.8 11.8525 133.69 12.167C133.581 12.4769 133.526 12.8073 133.526 13.1582V14.0879ZM143.555 17.1641C143.035 17.1641 142.568 17.0775 142.153 16.9043C141.743 16.7311 141.392 16.4873 141.101 16.1729C140.809 15.8538 140.586 15.4733 140.431 15.0312C140.276 14.5892 140.198 14.0993 140.198 13.5615C140.198 12.9782 140.28 12.4564 140.444 11.9961C140.608 11.5358 140.841 11.1462 141.142 10.8271C141.447 10.5036 141.814 10.2575 142.242 10.0889C142.671 9.92025 143.149 9.83594 143.678 9.83594C144.184 9.83594 144.639 9.92025 145.045 10.0889C145.451 10.2529 145.795 10.4922 146.077 10.8066C146.36 11.1211 146.576 11.5039 146.727 11.9551C146.877 12.4062 146.952 12.9189 146.952 13.4932C146.952 14.04 146.872 14.5391 146.713 14.9902C146.558 15.4368 146.335 15.8219 146.043 16.1455C145.751 16.4691 145.396 16.7197 144.977 16.8975C144.557 17.0752 144.083 17.1641 143.555 17.1641ZM143.623 10.5947C143.24 10.5947 142.894 10.6608 142.584 10.793C142.274 10.9251 142.007 11.1188 141.784 11.374C141.565 11.6247 141.397 11.9346 141.278 12.3037C141.16 12.6683 141.101 13.083 141.101 13.5479C141.101 13.9854 141.16 14.3796 141.278 14.7305C141.397 15.0814 141.563 15.3822 141.777 15.6328C141.996 15.8835 142.26 16.0771 142.57 16.2139C142.88 16.346 143.227 16.4121 143.609 16.4121C144.001 16.4121 144.348 16.3483 144.648 16.2207C144.949 16.0885 145.204 15.8994 145.414 15.6533C145.624 15.4027 145.781 15.0973 145.886 14.7373C145.995 14.3773 146.05 13.9671 146.05 13.5068C146.05 12.5635 145.84 11.8434 145.421 11.3467C145.002 10.8454 144.402 10.5947 143.623 10.5947ZM148.319 15.7422C148.451 15.847 148.595 15.9404 148.75 16.0225C148.905 16.1045 149.064 16.1751 149.229 16.2344C149.393 16.2936 149.557 16.3392 149.721 16.3711C149.889 16.3984 150.049 16.4121 150.199 16.4121C151.238 16.4121 151.758 16.0225 151.758 15.2432C151.758 15.0654 151.721 14.9128 151.648 14.7852C151.576 14.653 151.471 14.5345 151.334 14.4297C151.197 14.3203 151.033 14.2201 150.842 14.1289C150.65 14.0378 150.434 13.9421 150.192 13.8418C149.869 13.7096 149.591 13.5752 149.358 13.4385C149.126 13.3018 148.935 13.1536 148.784 12.9941C148.634 12.8301 148.522 12.6523 148.449 12.4609C148.376 12.265 148.34 12.0439 148.34 11.7979C148.34 11.488 148.406 11.2122 148.538 10.9707C148.675 10.7292 148.857 10.5241 149.085 10.3555C149.313 10.1868 149.575 10.0592 149.871 9.97266C150.172 9.88151 150.486 9.83594 150.814 9.83594C151.421 9.83594 151.949 9.94987 152.4 10.1777V11.1006C151.876 10.7633 151.311 10.5947 150.705 10.5947C150.486 10.5947 150.286 10.6221 150.104 10.6768C149.926 10.7314 149.773 10.8089 149.646 10.9092C149.518 11.0094 149.418 11.1302 149.345 11.2715C149.276 11.4082 149.242 11.5609 149.242 11.7295C149.242 11.9027 149.27 12.0553 149.324 12.1875C149.379 12.3151 149.463 12.4313 149.577 12.5361C149.696 12.641 149.846 12.7412 150.028 12.8369C150.215 12.9326 150.441 13.0352 150.705 13.1445C151.042 13.2812 151.334 13.418 151.58 13.5547C151.826 13.6868 152.029 13.8327 152.188 13.9922C152.348 14.1471 152.466 14.3226 152.544 14.5186C152.621 14.71 152.66 14.9333 152.66 15.1885C152.66 15.5029 152.594 15.7832 152.462 16.0293C152.334 16.2754 152.154 16.4827 151.922 16.6514C151.694 16.82 151.425 16.9476 151.115 17.0342C150.805 17.1208 150.468 17.1641 150.104 17.1641C149.397 17.1641 148.802 17.016 148.319 16.7197V15.7422ZM157.411 16.918C157.11 17.0684 156.782 17.1436 156.427 17.1436C155.297 17.1436 154.731 16.4919 154.731 15.1885V10.7656H153.501V10H154.731V8.23633L155.606 7.94922V10H157.411V10.7656H155.606V15.0518C155.606 15.5257 155.684 15.8675 155.839 16.0771C155.994 16.2868 156.256 16.3916 156.625 16.3916C156.898 16.3916 157.16 16.3096 157.411 16.1455V16.918ZM162.894 17V15.7559H162.866C162.638 16.2025 162.326 16.5488 161.93 16.7949C161.538 17.041 161.093 17.1641 160.597 17.1641C160.259 17.1641 159.954 17.1162 159.681 17.0205C159.412 16.9248 159.182 16.7904 158.99 16.6172C158.803 16.4395 158.658 16.2275 158.553 15.9814C158.452 15.7354 158.402 15.4642 158.402 15.168C158.402 14.5345 158.598 14.0309 158.99 13.6572C159.382 13.279 159.975 13.0329 160.768 12.9189L162.894 12.6113C162.894 11.2669 162.372 10.5947 161.328 10.5947C160.512 10.5947 159.756 10.8932 159.059 11.4902V10.5332C159.204 10.4284 159.368 10.335 159.551 10.2529C159.738 10.1663 159.934 10.0934 160.139 10.0342C160.344 9.97038 160.553 9.92253 160.768 9.89062C160.986 9.85417 161.198 9.83594 161.403 9.83594C162.183 9.83594 162.771 10.0547 163.167 10.4922C163.568 10.9297 163.769 11.5814 163.769 12.4473V17H162.894ZM161.089 13.6025C160.774 13.6481 160.506 13.7051 160.282 13.7734C160.059 13.8418 159.874 13.9352 159.729 14.0537C159.583 14.1676 159.476 14.3112 159.407 14.4844C159.339 14.653 159.305 14.8626 159.305 15.1133C159.305 15.3001 159.337 15.4733 159.4 15.6328C159.469 15.7923 159.564 15.9313 159.688 16.0498C159.815 16.1637 159.968 16.2526 160.146 16.3164C160.328 16.3802 160.533 16.4121 160.761 16.4121C161.071 16.4121 161.355 16.3529 161.615 16.2344C161.875 16.1159 162.098 15.9518 162.285 15.7422C162.477 15.5326 162.625 15.2819 162.729 14.9902C162.839 14.6986 162.894 14.3818 162.894 14.04V13.3496L161.089 13.6025Z" fill="#757575"/>
<path d="M63.9121 17V8.23633C63.7526 8.37305 63.5726 8.50521 63.3721 8.63281C63.1761 8.76042 62.9733 8.88118 62.7637 8.99512C62.5586 9.10449 62.3512 9.20475 62.1416 9.2959C61.9365 9.38249 61.7451 9.4554 61.5674 9.51465V8.74219C62.1051 8.56901 62.6178 8.33203 63.1055 8.03125C63.5977 7.72591 64.0739 7.375 64.5342 6.97852H64.7871V17H63.9121ZM71.2197 17V6.63672H72.0947V17H71.2197ZM74.7812 8.22949C74.6126 8.22949 74.4668 8.17025 74.3438 8.05176C74.2207 7.93327 74.1592 7.78288 74.1592 7.60059C74.1592 7.42285 74.2207 7.27702 74.3438 7.16309C74.4668 7.0446 74.6126 6.98535 74.7812 6.98535C74.8678 6.98535 74.9499 7.0013 75.0273 7.0332C75.1048 7.06055 75.1709 7.10156 75.2256 7.15625C75.2848 7.21094 75.3304 7.27702 75.3623 7.35449C75.3988 7.42741 75.417 7.50944 75.417 7.60059C75.417 7.68717 75.401 7.76921 75.3691 7.84668C75.3372 7.92415 75.2917 7.99251 75.2324 8.05176C75.1732 8.10645 75.1048 8.14974 75.0273 8.18164C74.9544 8.21354 74.8724 8.22949 74.7812 8.22949ZM74.3506 17V10H75.2256V17H74.3506ZM81.6035 17L78.3838 13.5889H78.3564V17H77.4814V6.63672H78.3564V13.2607H78.3838L81.4395 10H82.5811L79.2998 13.3838L82.8408 17H81.6035ZM84.2012 13.6572C84.2057 14.0856 84.2627 14.4707 84.3721 14.8125C84.4814 15.1543 84.6387 15.4437 84.8438 15.6807C85.0488 15.9176 85.2972 16.0999 85.5889 16.2275C85.8851 16.3506 86.2178 16.4121 86.5869 16.4121C87.3753 16.4121 88.1204 16.1364 88.8223 15.585V16.4463C88.1523 16.9248 87.3411 17.1641 86.3887 17.1641C85.9193 17.1641 85.4932 17.082 85.1104 16.918C84.7275 16.7539 84.4017 16.5169 84.1328 16.207C83.8639 15.8926 83.6566 15.5075 83.5107 15.0518C83.3649 14.596 83.292 14.0765 83.292 13.4932C83.292 12.9691 83.3717 12.4837 83.5312 12.0371C83.6908 11.5905 83.9118 11.2054 84.1943 10.8818C84.4769 10.5537 84.8118 10.2985 85.1992 10.1162C85.5866 9.92936 86.0104 9.83594 86.4707 9.83594C86.9219 9.83594 87.3206 9.91569 87.667 10.0752C88.0133 10.2301 88.3027 10.4535 88.5352 10.7451C88.7721 11.0368 88.9521 11.3923 89.0752 11.8115C89.1982 12.2308 89.2598 12.7002 89.2598 13.2197V13.6572H84.2012ZM88.3574 12.8916C88.3438 12.1624 88.1706 11.5973 87.8379 11.1963C87.5052 10.7952 87.0426 10.5947 86.4502 10.5947C86.154 10.5947 85.8783 10.6471 85.623 10.752C85.3724 10.8568 85.1514 11.0094 84.96 11.21C84.7686 11.4059 84.609 11.6475 84.4814 11.9346C84.3584 12.2171 84.2718 12.5361 84.2217 12.8916H88.3574Z" fill="#757575"/>
<g filter="url(#filter0_dd_316_13)">
<path fill-rule="evenodd" clip-rule="evenodd" d="M21 2C19.8954 2 19 2.89543 19 4V19C19 20.1046 19.8954 21 21 21H44C45.1046 21 46 20.1046 46 19V4C46 2.89543 45.1046 2 44 2H21Z" fill="#ED7839"/>
</g>
<path d="M32 17.4414L31.1523 16.6758C30.1862 15.8008 29.4844 15.1536 29.0469 14.7344C28.6094 14.3151 28.1172 13.7956 27.5703 13.1758C27.0417 12.556 26.6771 12 26.4766 11.5078C26.276 10.9974 26.1758 10.4779 26.1758 9.94922C26.1758 9.05599 26.4766 8.29948 27.0781 7.67969C27.6979 7.0599 28.4635 6.75 29.375 6.75C30.4323 6.75 31.3073 7.16016 32 7.98047C32.6927 7.16016 33.5677 6.75 34.625 6.75C35.5365 6.75 36.293 7.0599 36.8945 7.67969C37.5143 8.29948 37.8242 9.05599 37.8242 9.94922C37.8242 10.6602 37.5872 11.3984 37.1133 12.1641C36.6393 12.9297 36.1198 13.5951 35.5547 14.1602C35.0078 14.7253 34.1055 15.5729 32.8477 16.7031L32 17.4414Z" fill="white"/>
<defs>
<filter id="filter0_dd_316_13" x="17" y="0" width="31" height="25" filterUnits="userSpaceOnUse" color-interpolation-filters="sRGB">
<feFlood flood-opacity="0" result="BackgroundImageFix"/>
<feColorMatrix in="SourceAlpha" type="matrix" values="0 0 0 0 0 0 0 0 0 0 0 0 0 0 0 0 0 0 127 0" result="hardAlpha"/>
<feOffset dy="2"/>
<feGaussianBlur stdDeviation="1"/>
<feColorMatrix type="matrix" values="0 0 0 0 0 0 0 0 0 0 0 0 0 0 0 0 0 0 0.24 0"/>
<feBlend mode="normal" in2="BackgroundImageFix" result="effect1_dropShadow_316_13"/>
<feColorMatrix in="SourceAlpha" type="matrix" values="0 0 0 0 0 0 0 0 0 0 0 0 0 0 0 0 0 0 127 0" result="hardAlpha"/>
<feOffset/>
<feGaussianBlur stdDeviation="1"/>
<feColorMatrix type="matrix" values="0 0 0 0 0 0 0 0 0 0 0 0 0 0 0 0 0 0 0.12 0"/>
<feBlend mode="normal" in2="effect1_dropShadow_316_13" result="effect2_dropShadow_316_13"/>
<feBlend mode="normal" in="SourceGraphic" in2="effect2_dropShadow_316_13" result="shape"/>
</filter>
</defs>
</svg>
