<svg width="182" height="25" viewBox="0 0 182 25" fill="none" xmlns="http://www.w3.org/2000/svg">
<ellipse cx="2.02435" cy="19" rx="2.00195" ry="2" fill="#ED7839"/>
<ellipse cx="2.02435" cy="12" rx="2.00195" ry="2" fill="#ED7839"/>
<ellipse cx="2.02435" cy="5" rx="2.00195" ry="2" fill="#ED7839"/>
<path d="M118.984 7.19727V13.7734H120.515V14.5664H118.984V17H118.116V14.5664H113.474V13.7734C113.907 13.2812 114.345 12.7572 114.787 12.2012C115.233 11.6406 115.659 11.0732 116.065 10.499C116.471 9.92025 116.844 9.35059 117.186 8.79004C117.528 8.22493 117.815 7.69401 118.047 7.19727H118.984ZM118.116 13.7734V8.59863C117.779 9.18197 117.444 9.72656 117.111 10.2324C116.778 10.7337 116.455 11.2008 116.14 11.6338C115.83 12.0622 115.532 12.4541 115.245 12.8096C114.962 13.165 114.702 13.4863 114.465 13.7734H118.116ZM129.258 10.8955C129.053 10.7451 128.789 10.6699 128.465 10.6699C128.233 10.6699 128.028 10.7155 127.85 10.8066C127.672 10.8932 127.515 11.0117 127.378 11.1621C127.246 11.3125 127.132 11.488 127.037 11.6885C126.946 11.8844 126.87 12.0895 126.811 12.3037C126.756 12.5179 126.715 12.7344 126.688 12.9531C126.665 13.1719 126.654 13.3792 126.654 13.5752V17H125.786V10H126.654V11.4971H126.681C126.763 11.2419 126.866 11.014 126.989 10.8135C127.116 10.6084 127.262 10.4375 127.426 10.3008C127.59 10.1595 127.768 10.0524 127.96 9.97949C128.155 9.90658 128.361 9.87012 128.575 9.87012C128.716 9.87012 128.841 9.87923 128.951 9.89746C129.065 9.91569 129.167 9.94303 129.258 9.97949V10.8955ZM130.755 13.6572C130.76 14.0856 130.817 14.4707 130.926 14.8125C131.036 15.1543 131.193 15.4437 131.398 15.6807C131.603 15.9176 131.851 16.0999 132.143 16.2275C132.439 16.3506 132.772 16.4121 133.141 16.4121C133.93 16.4121 134.675 16.1364 135.376 15.585V16.4463C134.707 16.9248 133.895 17.1641 132.943 17.1641C132.474 17.1641 132.047 17.082 131.665 16.918C131.282 16.7539 130.956 16.5169 130.687 16.207C130.418 15.8926 130.211 15.5075 130.065 15.0518C129.919 14.596 129.846 14.0765 129.846 13.4932C129.846 12.9691 129.926 12.4837 130.085 12.0371C130.245 11.5905 130.466 11.2054 130.749 10.8818C131.031 10.5537 131.366 10.2985 131.753 10.1162C132.141 9.92936 132.565 9.83594 133.025 9.83594C133.476 9.83594 133.875 9.91569 134.221 10.0752C134.568 10.2301 134.857 10.4535 135.089 10.7451C135.326 11.0368 135.506 11.3923 135.629 11.8115C135.752 12.2308 135.814 12.7002 135.814 13.2197V13.6572H130.755ZM134.912 12.8916C134.898 12.1624 134.725 11.5973 134.392 11.1963C134.059 10.7952 133.597 10.5947 133.004 10.5947C132.708 10.5947 132.432 10.6471 132.177 10.752C131.927 10.8568 131.706 11.0094 131.514 11.21C131.323 11.4059 131.163 11.6475 131.036 11.9346C130.913 12.2171 130.826 12.5361 130.776 12.8916H134.912ZM137.133 15.7422C137.265 15.847 137.409 15.9404 137.564 16.0225C137.719 16.1045 137.878 16.1751 138.043 16.2344C138.207 16.2936 138.371 16.3392 138.535 16.3711C138.703 16.3984 138.863 16.4121 139.013 16.4121C140.052 16.4121 140.572 16.0225 140.572 15.2432C140.572 15.0654 140.535 14.9128 140.462 14.7852C140.39 14.653 140.285 14.5345 140.148 14.4297C140.011 14.3203 139.847 14.2201 139.656 14.1289C139.464 14.0378 139.248 13.9421 139.006 13.8418C138.683 13.7096 138.405 13.5752 138.172 13.4385C137.94 13.3018 137.749 13.1536 137.598 12.9941C137.448 12.8301 137.336 12.6523 137.263 12.4609C137.19 12.265 137.154 12.0439 137.154 11.7979C137.154 11.488 137.22 11.2122 137.352 10.9707C137.489 10.7292 137.671 10.5241 137.899 10.3555C138.127 10.1868 138.389 10.0592 138.685 9.97266C138.986 9.88151 139.3 9.83594 139.628 9.83594C140.235 9.83594 140.763 9.94987 141.214 10.1777V11.1006C140.69 10.7633 140.125 10.5947 139.519 10.5947C139.3 10.5947 139.1 10.6221 138.918 10.6768C138.74 10.7314 138.587 10.8089 138.46 10.9092C138.332 11.0094 138.232 11.1302 138.159 11.2715C138.09 11.4082 138.056 11.5609 138.056 11.7295C138.056 11.9027 138.084 12.0553 138.138 12.1875C138.193 12.3151 138.277 12.4313 138.391 12.5361C138.51 12.641 138.66 12.7412 138.842 12.8369C139.029 12.9326 139.255 13.0352 139.519 13.1445C139.856 13.2812 140.148 13.418 140.394 13.5547C140.64 13.6868 140.843 13.8327 141.002 13.9922C141.162 14.1471 141.28 14.3226 141.358 14.5186C141.435 14.71 141.474 14.9333 141.474 15.1885C141.474 15.5029 141.408 15.7832 141.276 16.0293C141.148 16.2754 140.968 16.4827 140.736 16.6514C140.508 16.82 140.239 16.9476 139.929 17.0342C139.619 17.1208 139.282 17.1641 138.918 17.1641C138.211 17.1641 137.616 17.016 137.133 16.7197V15.7422ZM144.092 15.8721V20.2197H143.217V10H144.092V11.3398H144.12C144.379 10.8522 144.726 10.4808 145.159 10.2256C145.596 9.96582 146.088 9.83594 146.635 9.83594C147.082 9.83594 147.481 9.91797 147.832 10.082C148.187 10.2415 148.486 10.4694 148.727 10.7656C148.973 11.0618 149.16 11.4219 149.288 11.8457C149.42 12.2695 149.486 12.7458 149.486 13.2744C149.486 13.8532 149.413 14.3818 149.267 14.8604C149.121 15.3343 148.912 15.7422 148.638 16.084C148.365 16.4258 148.032 16.6924 147.64 16.8838C147.253 17.0706 146.815 17.1641 146.328 17.1641C145.343 17.1641 144.607 16.7334 144.12 15.8721H144.092ZM144.092 14.0879C144.092 14.4069 144.145 14.7077 144.25 14.9902C144.359 15.2682 144.509 15.5143 144.701 15.7285C144.892 15.9382 145.122 16.1045 145.391 16.2275C145.665 16.3506 145.965 16.4121 146.293 16.4121C146.644 16.4121 146.961 16.3392 147.244 16.1934C147.526 16.043 147.765 15.8311 147.961 15.5576C148.162 15.2842 148.315 14.9538 148.419 14.5664C148.529 14.179 148.584 13.7461 148.584 13.2676C148.584 12.8574 148.533 12.4883 148.433 12.1602C148.333 11.8275 148.189 11.5449 148.002 11.3125C147.82 11.0801 147.597 10.9023 147.333 10.7793C147.073 10.6562 146.781 10.5947 146.458 10.5947C146.093 10.5947 145.765 10.6631 145.473 10.7998C145.182 10.932 144.933 11.1143 144.728 11.3467C144.523 11.5791 144.366 11.8525 144.256 12.167C144.147 12.4769 144.092 12.8073 144.092 13.1582V14.0879ZM154.121 17.1641C153.601 17.1641 153.134 17.0775 152.719 16.9043C152.309 16.7311 151.958 16.4873 151.667 16.1729C151.375 15.8538 151.152 15.4733 150.997 15.0312C150.842 14.5892 150.764 14.0993 150.764 13.5615C150.764 12.9782 150.846 12.4564 151.01 11.9961C151.174 11.5358 151.407 11.1462 151.708 10.8271C152.013 10.5036 152.38 10.2575 152.808 10.0889C153.237 9.92025 153.715 9.83594 154.244 9.83594C154.75 9.83594 155.205 9.92025 155.611 10.0889C156.016 10.2529 156.361 10.4922 156.643 10.8066C156.926 11.1211 157.142 11.5039 157.293 11.9551C157.443 12.4062 157.518 12.9189 157.518 13.4932C157.518 14.04 157.438 14.5391 157.279 14.9902C157.124 15.4368 156.901 15.8219 156.609 16.1455C156.317 16.4691 155.962 16.7197 155.543 16.8975C155.123 17.0752 154.649 17.1641 154.121 17.1641ZM154.189 10.5947C153.806 10.5947 153.46 10.6608 153.15 10.793C152.84 10.9251 152.573 11.1188 152.35 11.374C152.131 11.6247 151.963 11.9346 151.844 12.3037C151.726 12.6683 151.667 13.083 151.667 13.5479C151.667 13.9854 151.726 14.3796 151.844 14.7305C151.963 15.0814 152.129 15.3822 152.343 15.6328C152.562 15.8835 152.826 16.0771 153.136 16.2139C153.446 16.346 153.793 16.4121 154.175 16.4121C154.567 16.4121 154.914 16.3483 155.214 16.2207C155.515 16.0885 155.77 15.8994 155.98 15.6533C156.19 15.4027 156.347 15.0973 156.452 14.7373C156.561 14.3773 156.616 13.9671 156.616 13.5068C156.616 12.5635 156.406 11.8434 155.987 11.3467C155.568 10.8454 154.968 10.5947 154.189 10.5947ZM158.885 15.7422C159.017 15.847 159.161 15.9404 159.316 16.0225C159.471 16.1045 159.63 16.1751 159.794 16.2344C159.959 16.2936 160.123 16.3392 160.287 16.3711C160.455 16.3984 160.615 16.4121 160.765 16.4121C161.804 16.4121 162.324 16.0225 162.324 15.2432C162.324 15.0654 162.287 14.9128 162.214 14.7852C162.141 14.653 162.037 14.5345 161.9 14.4297C161.763 14.3203 161.599 14.2201 161.408 14.1289C161.216 14.0378 161 13.9421 160.758 13.8418C160.435 13.7096 160.157 13.5752 159.924 13.4385C159.692 13.3018 159.501 13.1536 159.35 12.9941C159.2 12.8301 159.088 12.6523 159.015 12.4609C158.942 12.265 158.906 12.0439 158.906 11.7979C158.906 11.488 158.972 11.2122 159.104 10.9707C159.241 10.7292 159.423 10.5241 159.651 10.3555C159.879 10.1868 160.141 10.0592 160.437 9.97266C160.738 9.88151 161.052 9.83594 161.38 9.83594C161.987 9.83594 162.515 9.94987 162.966 10.1777V11.1006C162.442 10.7633 161.877 10.5947 161.271 10.5947C161.052 10.5947 160.852 10.6221 160.669 10.6768C160.492 10.7314 160.339 10.8089 160.211 10.9092C160.084 11.0094 159.984 11.1302 159.911 11.2715C159.842 11.4082 159.808 11.5609 159.808 11.7295C159.808 11.9027 159.835 12.0553 159.89 12.1875C159.945 12.3151 160.029 12.4313 160.143 12.5361C160.262 12.641 160.412 12.7412 160.594 12.8369C160.781 12.9326 161.007 13.0352 161.271 13.1445C161.608 13.2812 161.9 13.418 162.146 13.5547C162.392 13.6868 162.595 13.8327 162.754 13.9922C162.914 14.1471 163.032 14.3226 163.11 14.5186C163.187 14.71 163.226 14.9333 163.226 15.1885C163.226 15.5029 163.16 15.7832 163.028 16.0293C162.9 16.2754 162.72 16.4827 162.488 16.6514C162.26 16.82 161.991 16.9476 161.681 17.0342C161.371 17.1208 161.034 17.1641 160.669 17.1641C159.963 17.1641 159.368 17.016 158.885 16.7197V15.7422ZM167.977 16.918C167.676 17.0684 167.348 17.1436 166.993 17.1436C165.862 17.1436 165.297 16.4919 165.297 15.1885V10.7656H164.067V10H165.297V8.23633L166.172 7.94922V10H167.977V10.7656H166.172V15.0518C166.172 15.5257 166.25 15.8675 166.405 16.0771C166.56 16.2868 166.822 16.3916 167.191 16.3916C167.464 16.3916 167.726 16.3096 167.977 16.1455V16.918ZM173.46 17V15.7559H173.432C173.204 16.2025 172.892 16.5488 172.496 16.7949C172.104 17.041 171.659 17.1641 171.163 17.1641C170.825 17.1641 170.52 17.1162 170.247 17.0205C169.978 16.9248 169.748 16.7904 169.556 16.6172C169.369 16.4395 169.224 16.2275 169.119 15.9814C169.018 15.7354 168.968 15.4642 168.968 15.168C168.968 14.5345 169.164 14.0309 169.556 13.6572C169.948 13.279 170.541 13.0329 171.334 12.9189L173.46 12.6113C173.46 11.2669 172.938 10.5947 171.894 10.5947C171.078 10.5947 170.322 10.8932 169.625 11.4902V10.5332C169.77 10.4284 169.934 10.335 170.117 10.2529C170.304 10.1663 170.5 10.0934 170.705 10.0342C170.91 9.97038 171.119 9.92253 171.334 9.89062C171.552 9.85417 171.764 9.83594 171.969 9.83594C172.749 9.83594 173.336 10.0547 173.733 10.4922C174.134 10.9297 174.335 11.5814 174.335 12.4473V17H173.46ZM171.655 13.6025C171.34 13.6481 171.071 13.7051 170.848 13.7734C170.625 13.8418 170.44 13.9352 170.294 14.0537C170.149 14.1676 170.042 14.3112 169.973 14.4844C169.905 14.653 169.871 14.8626 169.871 15.1133C169.871 15.3001 169.903 15.4733 169.966 15.6328C170.035 15.7923 170.13 15.9313 170.253 16.0498C170.381 16.1637 170.534 16.2526 170.711 16.3164C170.894 16.3802 171.099 16.4121 171.327 16.4121C171.637 16.4121 171.921 16.3529 172.181 16.2344C172.441 16.1159 172.664 15.9518 172.851 15.7422C173.043 15.5326 173.191 15.2819 173.295 14.9902C173.405 14.6986 173.46 14.3818 173.46 14.04V13.3496L171.655 13.6025ZM176.043 15.7422C176.176 15.847 176.319 15.9404 176.474 16.0225C176.629 16.1045 176.789 16.1751 176.953 16.2344C177.117 16.2936 177.281 16.3392 177.445 16.3711C177.613 16.3984 177.773 16.4121 177.923 16.4121C178.962 16.4121 179.482 16.0225 179.482 15.2432C179.482 15.0654 179.446 14.9128 179.373 14.7852C179.3 14.653 179.195 14.5345 179.058 14.4297C178.921 14.3203 178.757 14.2201 178.566 14.1289C178.375 14.0378 178.158 13.9421 177.917 13.8418C177.593 13.7096 177.315 13.5752 177.083 13.4385C176.85 13.3018 176.659 13.1536 176.508 12.9941C176.358 12.8301 176.246 12.6523 176.173 12.4609C176.1 12.265 176.064 12.0439 176.064 11.7979C176.064 11.488 176.13 11.2122 176.262 10.9707C176.399 10.7292 176.581 10.5241 176.809 10.3555C177.037 10.1868 177.299 10.0592 177.595 9.97266C177.896 9.88151 178.21 9.83594 178.539 9.83594C179.145 9.83594 179.673 9.94987 180.125 10.1777V11.1006C179.6 10.7633 179.035 10.5947 178.429 10.5947C178.21 10.5947 178.01 10.6221 177.828 10.6768C177.65 10.7314 177.497 10.8089 177.37 10.9092C177.242 11.0094 177.142 11.1302 177.069 11.2715C177.001 11.4082 176.966 11.5609 176.966 11.7295C176.966 11.9027 176.994 12.0553 177.048 12.1875C177.103 12.3151 177.187 12.4313 177.301 12.5361C177.42 12.641 177.57 12.7412 177.752 12.8369C177.939 12.9326 178.165 13.0352 178.429 13.1445C178.766 13.2812 179.058 13.418 179.304 13.5547C179.55 13.6868 179.753 13.8327 179.913 13.9922C180.072 14.1471 180.191 14.3226 180.268 14.5186C180.346 14.71 180.384 14.9333 180.384 15.1885C180.384 15.5029 180.318 15.7832 180.186 16.0293C180.058 16.2754 179.878 16.4827 179.646 16.6514C179.418 16.82 179.149 16.9476 178.839 17.0342C178.529 17.1208 178.192 17.1641 177.828 17.1641C177.121 17.1641 176.527 17.016 176.043 16.7197V15.7422Z" fill="#757575"/>
<path d="M66.9333 7.19727V13.7734H68.4645V14.5664H66.9333V17H66.0651V14.5664H61.4235V13.7734C61.8565 13.2812 62.294 12.7572 62.736 12.2012C63.1826 11.6406 63.6087 11.0732 64.0143 10.499C64.4199 9.92025 64.7936 9.35059 65.1354 8.79004C65.4772 8.22493 65.7643 7.69401 65.9968 7.19727H66.9333ZM66.0651 13.7734V8.59863C65.7279 9.18197 65.3929 9.72656 65.0602 10.2324C64.7276 10.7337 64.404 11.2008 64.0895 11.6338C63.7796 12.0622 63.4811 12.4541 63.194 12.8096C62.9115 13.165 62.6517 13.4863 62.4147 13.7734H66.0651ZM73.735 17V6.63672H74.61V17H73.735ZM77.2966 8.22949C77.128 8.22949 76.9821 8.17025 76.8591 8.05176C76.736 7.93327 76.6745 7.78288 76.6745 7.60059C76.6745 7.42285 76.736 7.27702 76.8591 7.16309C76.9821 7.0446 77.128 6.98535 77.2966 6.98535C77.3832 6.98535 77.4652 7.0013 77.5427 7.0332C77.6201 7.06055 77.6862 7.10156 77.7409 7.15625C77.8002 7.21094 77.8457 7.27702 77.8776 7.35449C77.9141 7.42741 77.9323 7.50944 77.9323 7.60059C77.9323 7.68717 77.9164 7.76921 77.8845 7.84668C77.8526 7.92415 77.807 7.99251 77.7477 8.05176C77.6885 8.10645 77.6201 8.14974 77.5427 8.18164C77.4697 8.21354 77.3877 8.22949 77.2966 8.22949ZM76.8659 17V10H77.7409V17H76.8659ZM84.1188 17L80.8991 13.5889H80.8718V17H79.9968V6.63672H80.8718V13.2607H80.8991L83.9548 10H85.0964L81.8151 13.3838L85.3561 17H84.1188ZM86.7165 13.6572C86.721 14.0856 86.778 14.4707 86.8874 14.8125C86.9968 15.1543 87.154 15.4437 87.3591 15.6807C87.5641 15.9176 87.8125 16.0999 88.1042 16.2275C88.4004 16.3506 88.7331 16.4121 89.1022 16.4121C89.8906 16.4121 90.6358 16.1364 91.3376 15.585V16.4463C90.6677 16.9248 89.8565 17.1641 88.904 17.1641C88.4346 17.1641 88.0085 17.082 87.6257 16.918C87.2429 16.7539 86.917 16.5169 86.6481 16.207C86.3793 15.8926 86.1719 15.5075 86.0261 15.0518C85.8802 14.596 85.8073 14.0765 85.8073 13.4932C85.8073 12.9691 85.8871 12.4837 86.0466 12.0371C86.2061 11.5905 86.4271 11.2054 86.7097 10.8818C86.9922 10.5537 87.3272 10.2985 87.7145 10.1162C88.1019 9.92936 88.5257 9.83594 88.986 9.83594C89.4372 9.83594 89.836 9.91569 90.1823 10.0752C90.5287 10.2301 90.8181 10.4535 91.0505 10.7451C91.2875 11.0368 91.4675 11.3923 91.5905 11.8115C91.7136 12.2308 91.7751 12.7002 91.7751 13.2197V13.6572H86.7165ZM90.8727 12.8916C90.8591 12.1624 90.6859 11.5973 90.3532 11.1963C90.0205 10.7952 89.558 10.5947 88.9655 10.5947C88.6693 10.5947 88.3936 10.6471 88.1384 10.752C87.8877 10.8568 87.6667 11.0094 87.4753 11.21C87.2839 11.4059 87.1244 11.6475 86.9968 11.9346C86.8737 12.2171 86.7871 12.5361 86.737 12.8916H90.8727ZM93.0944 15.7422C93.2266 15.847 93.3701 15.9404 93.5251 16.0225C93.68 16.1045 93.8395 16.1751 94.0036 16.2344C94.1677 16.2936 94.3317 16.3392 94.4958 16.3711C94.6644 16.3984 94.8239 16.4121 94.9743 16.4121C96.0134 16.4121 96.5329 16.0225 96.5329 15.2432C96.5329 15.0654 96.4964 14.9128 96.4235 14.7852C96.3506 14.653 96.2458 14.5345 96.1091 14.4297C95.9724 14.3203 95.8083 14.2201 95.6169 14.1289C95.4255 14.0378 95.209 13.9421 94.9675 13.8418C94.6439 13.7096 94.3659 13.5752 94.1335 13.4385C93.9011 13.3018 93.7097 13.1536 93.5593 12.9941C93.4089 12.8301 93.2972 12.6523 93.2243 12.4609C93.1514 12.265 93.1149 12.0439 93.1149 11.7979C93.1149 11.488 93.181 11.2122 93.3132 10.9707C93.4499 10.7292 93.6322 10.5241 93.86 10.3555C94.0879 10.1868 94.35 10.0592 94.6462 9.97266C94.947 9.88151 95.2614 9.83594 95.5895 9.83594C96.1957 9.83594 96.7243 9.94987 97.1755 10.1777V11.1006C96.6514 10.7633 96.0863 10.5947 95.4802 10.5947C95.2614 10.5947 95.0609 10.6221 94.8786 10.6768C94.7009 10.7314 94.5482 10.8089 94.4206 10.9092C94.293 11.0094 94.1927 11.1302 94.1198 11.2715C94.0515 11.4082 94.0173 11.5609 94.0173 11.7295C94.0173 11.9027 94.0446 12.0553 94.0993 12.1875C94.154 12.3151 94.2383 12.4313 94.3522 12.5361C94.4707 12.641 94.6211 12.7412 94.8034 12.8369C94.9903 12.9326 95.2158 13.0352 95.4802 13.1445C95.8174 13.2812 96.1091 13.418 96.3552 13.5547C96.6013 13.6868 96.8041 13.8327 96.9636 13.9922C97.1231 14.1471 97.2416 14.3226 97.319 14.5186C97.3965 14.71 97.4352 14.9333 97.4352 15.1885C97.4352 15.5029 97.3692 15.7832 97.237 16.0293C97.1094 16.2754 96.9294 16.4827 96.697 16.6514C96.4691 16.82 96.2002 16.9476 95.8903 17.0342C95.5804 17.1208 95.2432 17.1641 94.8786 17.1641C94.1722 17.1641 93.5775 17.016 93.0944 16.7197V15.7422Z" fill="#757575"/>
<g filter="url(#filter0_dd_316_603)">
<path fill-rule="evenodd" clip-rule="evenodd" d="M21.0408 2C19.9363 2 19.0408 2.89543 19.0408 4V19C19.0408 20.1046 19.9363 21 21.0408 21H44.0671C45.1717 21 46.0671 20.1046 46.0671 19V4C46.0671 2.89543 45.1717 2 44.0671 2H21.0408Z" fill="#ED7839"/>
</g>
<path d="M32.0466 17.4414L31.1989 16.6758C30.2328 15.8008 29.5309 15.1536 29.0934 14.7344C28.6559 14.3151 28.1638 13.7956 27.6169 13.1758C27.0882 12.556 26.7237 12 26.5231 11.5078C26.3226 10.9974 26.2224 10.4779 26.2224 9.94922C26.2224 9.05599 26.5231 8.29948 27.1247 7.67969C27.7445 7.0599 28.5101 6.75 29.4216 6.75C30.4789 6.75 31.3539 7.16016 32.0466 7.98047C32.7393 7.16016 33.6143 6.75 34.6716 6.75C35.583 6.75 36.3395 7.0599 36.9411 7.67969C37.5609 8.29948 37.8708 9.05599 37.8708 9.94922C37.8708 10.6602 37.6338 11.3984 37.1599 12.1641C36.6859 12.9297 36.1664 13.5951 35.6013 14.1602C35.0544 14.7253 34.152 15.5729 32.8942 16.7031L32.0466 17.4414Z" fill="white"/>
<defs>
<filter id="filter0_dd_316_603" x="17.0408" y="0" width="31.0263" height="25" filterUnits="userSpaceOnUse" color-interpolation-filters="sRGB">
<feFlood flood-opacity="0" result="BackgroundImageFix"/>
<feColorMatrix in="SourceAlpha" type="matrix" values="0 0 0 0 0 0 0 0 0 0 0 0 0 0 0 0 0 0 127 0" result="hardAlpha"/>
<feOffset dy="2"/>
<feGaussianBlur stdDeviation="1"/>
<feColorMatrix type="matrix" values="0 0 0 0 0 0 0 0 0 0 0 0 0 0 0 0 0 0 0.24 0"/>
<feBlend mode="normal" in2="BackgroundImageFix" result="effect1_dropShadow_316_603"/>
<feColorMatrix in="SourceAlpha" type="matrix" values="0 0 0 0 0 0 0 0 0 0 0 0 0 0 0 0 0 0 127 0" result="hardAlpha"/>
<feOffset/>
<feGaussianBlur stdDeviation="1"/>
<feColorMatrix type="matrix" values="0 0 0 0 0 0 0 0 0 0 0 0 0 0 0 0 0 0 0.12 0"/>
<feBlend mode="normal" in2="effect1_dropShadow_316_603" result="effect2_dropShadow_316_603"/>
<feBlend mode="normal" in="SourceGraphic" in2="effect2_dropShadow_316_603" result="shape"/>
</filter>
</defs>
</svg>
