<svg width="19" height="19" viewBox="0 0 19 19" fill="none" xmlns="http://www.w3.org/2000/svg">
<path d="M8.51375 0.5625C8.70125 0.1875 9.00333 0 9.42 0C9.83667 0 10.1388 0.1875 10.3263 0.5625L12.3575 4.6875L16.92 5.375C17.3367 5.41667 17.6075 5.63542 17.7325 6.03125C17.8575 6.42708 17.7742 6.77083 17.4825 7.0625L14.17 10.2812L14.9513 14.8438C15.0138 15.2396 14.8783 15.5521 14.545 15.7812C14.2117 16.0312 13.8679 16.0625 13.5138 15.875L9.42 13.75L5.32625 15.875C4.97208 16.0833 4.62833 16.0625 4.295 15.8125C3.96167 15.5625 3.82625 15.2396 3.88875 14.8438L4.67 10.2812L1.3575 7.0625C1.06583 6.77083 0.9825 6.42708 1.1075 6.03125C1.2325 5.63542 1.50333 5.41667 1.92 5.375L6.4825 4.6875L8.51375 0.5625Z" fill="white"/>
</svg>
