<?xml version="1.0" encoding="utf-8"?>
<!-- Generator: Adobe Illustrator 22.1.0, SVG Export Plug-In . SVG Version: 6.00 Build 0)  -->
<svg version="1.1" id="Camada_1" xmlns="http://www.w3.org/2000/svg" xmlns:xlink="http://www.w3.org/1999/xlink" x="0px" y="0px"
	 viewBox="0 0 416 176.9" style="enable-background:new 0 0 416 176.9;" xml:space="preserve">
<style type="text/css">
	.st0{fill:#341947;}
</style>
<g>
	<g>
		<path class="st0" d="M95.9,49.5c-3-14.3-12.8-21.1-27.3-21.1c-19,0-32.7,14.5-32.7,41.5c0,27,13.7,41.5,32.7,41.5
			c15.5,0,25.2-8.9,30.3-23.2H77.5V72.4h39.1v51.3h-11.9l-2-16.4h-0.3C95.2,121.2,82.2,127,64.8,127c-23.1,0-49.5-19.3-49.5-54.3
			c0-37.7,20.8-60,55.5-60c23.8,0,41.5,12.4,44.8,36.8H95.9z"/>
		<path class="st0" d="M179.3,123.7c-1.7-3.5-2.6-7.5-2.3-11.5h-0.3c-4.5,8.9-12.7,14.5-22.9,14.5c-15.2,0-24.6-9.1-24.6-23.2
			c0-34.7,47.5-13,47.5-31.1c0-6.6-6-8.8-13.7-8.8c-5.7,0-12.7,2.4-12.7,9.1h-16.9c0-16.6,14.9-22,29.4-22
			c21.1,0,31.7,9.4,31.7,31.4v28.1c0,7.8,0.9,10.9,3.9,13.6H179.3z M176.8,84.2h-0.3c-6,11.8-28.2,3.9-28.2,19
			c0,8.1,5,10.6,12.2,10.6C178.4,113.8,176.8,96.4,176.8,84.2z"/>
		<path class="st0" d="M231.4,16v107.7h-17.8V16H231.4z"/>
		<path class="st0" d="M247.8,88.7c0.2-23.7,11.3-38,36.2-38c22.5,0,36.2,14.8,36.2,38c0,22.9-13.7,38-36.2,38
			C259.2,126.7,248,112.1,247.8,88.7z M301.3,88.7c0-17.2-7.1-25.3-17.4-25c-10-0.3-17,7.8-17,25c0,16.9,7.1,25,17,25
			C294.2,113.8,301.3,105.6,301.3,88.7z"/>
		<path class="st0" d="M380.6,123.7c-1.7-3.5-2.6-7.5-2.3-11.5H378c-4.5,8.9-12.7,14.5-22.9,14.5c-15.2,0-24.6-9.1-24.6-23.2
			c0-34.7,47.5-13,47.5-31.1c0-6.6-6-8.8-13.7-8.8c-5.7,0-12.7,2.4-12.7,9.1h-16.9c0-16.6,14.9-22,29.4-22
			c21.1,0,31.7,9.4,31.7,31.4v28.1c0,7.8,0.9,10.9,3.9,13.6H380.6z M378,84.2h-0.3c-6,11.8-28.2,3.9-28.2,19c0,8.1,5,10.6,12.2,10.6
			C379.7,113.8,378,96.4,378,84.2z M366.1,42.7h-12.4L367.3,21h20.4L366.1,42.7z"/>
	</g>
</g>
<g>
	<g>
		<path class="st0" d="M65,151.9c0.7-3.8,3.1-4.5,6.6-4.5c4.1,0,5.5,1.7,5.5,5.6v6.5c0,1,0.2,2.1,0.7,2.9h-2.4
			c-0.2-0.6-0.4-1.4-0.5-2.2c-1.4,1.8-3,2.7-5.3,2.7c-2.7,0-5.2-1.4-5.2-4.3c0-7.6,10.5-3.1,10.5-7.3c0-1.7-2.1-2.4-3.7-2.4
			c-2,0-3.7,0.7-3.9,2.9H65z M74.8,153.9c-1.4,0.9-3.4,1.3-5.5,1.6c-1.4,0.2-2.7,1.2-2.7,2.8c0,1.9,1.5,3,3.4,3c2.6,0,4.9-2,4.9-4.5
			V153.9z"/>
		<path class="st0" d="M91.8,162.4v-10c0-1.8-0.9-3.3-3-3.3c-2.4,0-4.5,1.9-4.5,5.6v7.8H82v-14.5h2.3v2.5h0.1c1.1-1.9,2.6-3,4.9-3
			c2.9,0,4.8,2.1,4.8,5.3v9.8H91.8z"/>
		<path class="st0" d="M98.9,151.9c0.7-3.8,3.1-4.5,6.6-4.5c4.1,0,5.5,1.7,5.5,5.6v6.5c0,1,0.2,2.1,0.7,2.9h-2.4
			c-0.2-0.6-0.4-1.4-0.5-2.2c-1.4,1.8-3,2.7-5.3,2.7c-2.7,0-5.2-1.4-5.2-4.3c0-7.6,10.5-3.1,10.5-7.3c0-1.7-2.1-2.4-3.7-2.4
			c-2,0-3.7,0.7-3.9,2.9H98.9z M108.8,153.9c-1.4,0.9-3.4,1.3-5.5,1.6c-1.4,0.2-2.7,1.2-2.7,2.8c0,1.9,1.5,3,3.4,3
			c2.6,0,4.9-2,4.9-4.5V153.9z"/>
		<path class="st0" d="M115.8,142.5h2.4v2.4h-2.4V142.5z M115.9,147.9h2.3v14.5h-2.3V147.9z"/>
		<path class="st0" d="M125,157.8c0.3,2.4,1.7,3.5,4.2,3.5c2,0,4.1-1,4.1-2.7c0-4.4-10.1-0.9-10.1-7c0-3.2,3.2-4.2,5.9-4.2
			c3.6,0,6,1.7,6.1,4.8h-2c0-2-1.6-3.1-4.1-3.1c-2.5,0-3.7,1-3.7,2.4c0,4.2,9.8,0.7,9.8,6.9c0,3.6-3.4,4.6-6.4,4.6
			c-3.4,0-5.7-1.6-6.1-5.2H125z"/>
		<path class="st0" d="M151.2,155.5c0.1,3.4,1.8,5.7,5,5.7c2.4,0,3.8-0.8,4.6-2.7h2.3c-0.8,3.2-3.6,4.4-6.8,4.4
			c-4.5,0-7.5-2.4-7.5-7.8c0-4.3,2.1-7.8,7.4-7.8c5.1,0,6.8,3.6,7,8.2H151.2z M160.9,153.8c-0.3-3.2-1.6-4.8-4.5-4.8
			c-3.1,0-5,2.3-5.1,4.8H160.9z"/>
		<path class="st0" d="M177,147.9h2.3v2.1h0.1c1.3-1.8,3-2.7,5.1-2.7c4.1,0,6.3,3.6,6.3,7.8c0,4.2-2.2,7.8-6.3,7.8
			c-2.4,0-3.9-0.9-5.1-2.6h-0.1v9.9H177V147.9z M183.9,161.3c3.3,0,4.6-2.8,4.6-6.1c0-3.3-1.3-6.1-4.6-6.1c-3.3,0-4.6,2.8-4.6,6.1
			C179.3,158.5,180.6,161.3,183.9,161.3z"/>
		<path class="st0" d="M195.3,147.9h2.3v3.1h0.1c1.3-2.6,3.5-3.7,6.4-3.7v1.9c-4.3,0-6.5,2.1-6.5,6v7.2h-2.3V147.9z"/>
		<path class="st0" d="M205.6,155.2c0-5.2,3.4-7.8,7.5-7.8s7.5,2.6,7.5,7.8c0,5.2-3.4,7.8-7.5,7.8S205.6,160.3,205.6,155.2z
			 M218.4,155.2c0-3.8-2-6.1-5.2-6.1s-5.2,2.4-5.2,6.1c0,3.8,2,6.1,5.2,6.1S218.4,158.9,218.4,155.2z"/>
		<path class="st0" d="M234.8,152.5c-0.1-2.2-1.7-3.5-3.9-3.5c-3.3,0-4.6,2.8-4.6,6.1c0,3.3,1.3,6.1,4.6,6.1c2.6,0,3.6-1.5,4.1-3.6
			h2.2c-0.8,3.7-2.6,5.3-6.3,5.3c-4.7,0-6.9-3.6-6.9-7.8c0-4.2,2.2-7.8,6.9-7.8c3.2,0,5.9,1.8,6.1,5.2H234.8z"/>
		<path class="st0" d="M243.1,155.5c0.1,3.4,1.8,5.7,5,5.7c2.4,0,3.8-0.8,4.6-2.7h2.3c-0.8,3.2-3.6,4.4-6.8,4.4
			c-4.5,0-7.5-2.4-7.5-7.8c0-4.3,2.1-7.8,7.4-7.8c5.1,0,6.8,3.6,7,8.2H243.1z M252.8,153.8c-0.3-3.2-1.6-4.8-4.5-4.8
			c-3.1,0-5,2.3-5.1,4.8H252.8z"/>
		<path class="st0" d="M261,155.5c0.1,3.4,1.8,5.7,5,5.7c2.4,0,3.8-0.8,4.6-2.7h2.3c-0.8,3.2-3.6,4.4-6.8,4.4
			c-4.5,0-7.5-2.4-7.5-7.8c0-4.3,2.1-7.8,7.4-7.8c5.1,0,6.8,3.6,7,8.2H261z M270.6,153.8c-0.3-3.2-1.6-4.8-4.5-4.8
			c-3.1,0-5,2.3-5.1,4.8H270.6z"/>
		<path class="st0" d="M290.1,162.4h-2.3v-2.1h-0.1c-1.3,1.8-3,2.7-5.1,2.7c-4.1,0-6.3-3.6-6.3-7.8c0-4.2,2.2-7.8,6.3-7.8
			c2.4,0,3.9,0.9,5.1,2.6h0.1v-10h2.3V162.4z M283.3,161.3c3.3,0,4.6-2.8,4.6-6.1c0-3.3-1.3-6.1-4.6-6.1s-4.6,2.8-4.6,6.1
			C278.7,158.5,280,161.3,283.3,161.3z"/>
		<path class="st0" d="M295,142.5h2.4v2.4H295V142.5z M295.1,147.9h2.3v14.5h-2.3V147.9z"/>
		<path class="st0" d="M312.3,162.4v-10c0-1.8-0.9-3.3-3-3.3c-2.4,0-4.5,1.9-4.5,5.6v7.8h-2.3v-14.5h2.3v2.5h0.1
			c1.1-1.9,2.6-3,4.9-3c2.9,0,4.8,2.1,4.8,5.3v9.8H312.3z"/>
		<path class="st0" d="M332.6,147.9v13.8c0,4.1-1.5,7.4-7.2,7.4c-3.7,0-5.8-2.4-5.8-4.5v-0.1h2.2c0.3,2.1,2,2.8,3.8,2.8
			c2.7,0,4.7-1.8,4.7-5.1v-1.9h-0.1c-1.3,1.7-3,2.6-5.1,2.6c-4.1,0-6.3-3.6-6.3-7.8c0-4.2,2.2-7.8,6.3-7.8c2.4,0,3.9,0.9,5.1,2.6
			h0.1v-2.1H332.6z M325.8,161.3c3.3,0,4.6-2.8,4.6-6.1c0-3.3-1.3-6.1-4.6-6.1s-4.6,2.8-4.6,6.1
			C321.1,158.5,322.5,161.3,325.8,161.3z"/>
		<path class="st0" d="M339.3,157.8c0.3,2.4,1.7,3.5,4.2,3.5c2,0,4.1-1,4.1-2.7c0-4.4-10.1-0.9-10.1-7c0-3.2,3.2-4.2,5.9-4.2
			c3.6,0,6,1.7,6.1,4.8h-2c0-2-1.6-3.1-4.1-3.1c-2.5,0-3.7,1-3.7,2.4c0,4.2,9.8,0.7,9.8,6.9c0,3.6-3.4,4.6-6.4,4.6
			c-3.4,0-5.7-1.6-6.1-5.2H339.3z"/>
	</g>
</g>
<rect x="15.7" y="152.4" class="st0" width="35.5" height="2.8"/>
<rect x="364.7" y="152.4" class="st0" width="35.5" height="2.8"/>
</svg>
