<svg width="51" height="49" viewBox="0 0 51 49" fill="none" xmlns="http://www.w3.org/2000/svg">
<path d="M11.8603 18.0563C19.8603 16.0563 20.8603 8.55636 25.3603 3.55638C33.9103 -5.94368 47.1802 5.55627 41.8603 15.0563C38.3624 21.3025 53.3603 21.5563 50.3603 38.0563C47.3603 54.5563 28.8603 49.0563 25.3603 42.5563C21.8603 36.0563 16.3603 41.5563 5.86026 38.0563C-4.63974 34.5563 1.86026 20.5563 11.8603 18.0563Z" fill="#F4F4F4"/>
<path d="M40.1414 33.6881H32.922C30.9315 33.6881 29.3132 35.3064 29.3132 37.2968V39.2656C29.3132 39.809 29.7542 40.25 30.2976 40.25H42.7657C43.3091 40.25 43.7501 39.809 43.7501 39.2656V37.2968C43.7501 35.3064 42.1318 33.6881 40.1414 33.6881Z" fill="#4D4D4D"/>
<path d="M23.0781 33.6881H15.8587C13.8683 33.6881 12.25 35.3064 12.25 37.2968V39.2656C12.25 39.809 12.691 40.25 13.2344 40.25H25.7025C26.2458 40.25 26.6868 39.809 26.6868 39.2656V37.2968C26.6868 35.3064 25.0685 33.6881 23.0781 33.6881Z" fill="#4D4D4D"/>
<path d="M36.5305 31.0618C38.7051 31.0618 40.468 29.2989 40.468 27.1243C40.468 24.9496 38.7051 23.1868 36.5305 23.1868C34.3559 23.1868 32.593 24.9496 32.593 27.1243C32.593 29.2989 34.3559 31.0618 36.5305 31.0618Z" fill="#4D4D4D"/>
<path d="M19.4695 31.0618C21.6441 31.0618 23.407 29.2989 23.407 27.1243C23.407 24.9496 21.6441 23.1868 19.4695 23.1868C17.2949 23.1868 15.532 24.9496 15.532 27.1243C15.532 29.2989 17.2949 31.0618 19.4695 31.0618Z" fill="#4D4D4D"/>
<path d="M30.6775 22.1001V23.0451C30.6775 23.8464 30.0219 24.502 29.2068 24.502H26.7912C26.0824 24.502 25.3205 23.9763 25.3205 22.8088V22.1001H30.6775Z" fill="#F0A880"/>
<path d="M33.9063 14.6188C33.9063 16.3906 33.1188 18.0444 31.7407 19.1607C31.1894 19.6076 30.8351 20.1844 30.7169 20.7888H25.297C25.2044 20.1982 24.8776 19.6469 24.3382 19.2276C22.8813 18.0857 22.0544 16.367 22.0938 14.5026C22.1588 11.3782 24.7713 8.79323 27.9075 8.75385C29.4963 8.71448 31.0182 9.3307 32.16 10.4608C33.2901 11.5613 33.9063 13.0438 33.9063 14.6188Z" fill="#F0A880"/>
</svg>
