<svg width="51" height="49" viewBox="0 0 51 49" fill="none" xmlns="http://www.w3.org/2000/svg">
<path d="M11.8603 18.0563C19.8603 16.0563 20.8603 8.55636 25.3603 3.55638C33.9103 -5.94368 47.1802 5.55627 41.8603 15.0563C38.3624 21.3025 53.3603 21.5563 50.3603 38.0563C47.3603 54.5563 28.8603 49.0563 25.3603 42.5563C21.8603 36.0563 16.3603 41.5563 5.86026 38.0563C-4.63974 34.5563 1.86026 20.5563 11.8603 18.0563Z" fill="#F4F4F4"/>
<path d="M13.6355 25.0232C13.2829 25.0291 13 25.3177 13 25.6704V37.615C13 37.7933 13.1453 37.9386 13.3236 37.9386H16.3868C16.6754 37.9386 16.9293 37.7468 17.0087 37.4697L19.8665 27.3967C20.0506 26.7457 19.7018 26.0617 19.0663 25.8312C17.8961 25.403 16.1 24.9826 13.6355 25.0232Z" fill="#4D4D4D"/>
<path d="M41.4175 32.1259C38.8349 32.1259 33.6675 35.3964 31.0849 35.3964C28.5022 35.3964 25.594 33.4163 25.594 33.4163C25.594 33.4163 29.0737 34.0615 31.0829 34.0615C33.0921 34.0615 33.6656 33.3756 33.6656 32.4475C33.6656 30.1865 29.8255 29.8358 27.8841 29.5413C25.9776 28.4795 24.9875 27.6406 21.8294 27.3732C21.81 27.5573 21.781 27.7394 21.7306 27.9235L19.1363 37.0685C22.0755 38.4054 27.1343 40.523 29.7906 40.523C33.6656 40.523 43.9983 35.3557 43.9983 34.0654C43.9983 32.775 42.7079 32.1259 41.4175 32.1259Z" fill="#4D4D4D"/>
<path d="M42.603 10.3989C42.4906 10.0385 42.1186 9.76726 41.7427 9.71688C39.4565 9.41463 36.3236 9.00388 33.8164 11.2591C32.1502 12.7607 31.9293 15.2833 33.2216 17.0658C32.0243 18.2942 31.2648 19.5652 30.7862 20.6831C30.298 19.664 29.7245 18.7514 29.151 17.9668C29.4086 17.3293 29.5443 16.6279 29.5365 15.8878C29.521 14.394 28.9165 12.9293 27.9187 11.9721C24.8613 9.03101 21.027 9.41657 17.9464 9.72657L17.7875 9.74207C17.4117 9.78082 17.092 10.0327 16.968 10.3892C16.8459 10.7457 16.9408 11.1429 17.2121 11.4044C18.5916 12.7297 18.8725 14.1383 19.1709 15.6282C19.4363 16.9534 19.7095 18.3252 20.8275 19.4005C21.8853 20.4177 23.2823 20.9292 24.6463 20.9292C25.8746 20.9292 27.0681 20.501 27.973 19.6659C28.8371 20.9505 29.647 22.5373 29.9744 24.3024C29.9821 24.3431 30.0054 24.376 30.017 24.4148C30.0325 24.4613 30.0461 24.5039 30.0674 24.5465C30.1023 24.6163 30.1449 24.6783 30.1953 24.7364C30.2205 24.7674 30.2418 24.7984 30.2708 24.8255C30.3367 24.8875 30.4123 24.9359 30.4936 24.9766C30.5169 24.9883 30.5363 25.0057 30.5614 25.0154C30.6758 25.0619 30.7978 25.0948 30.9257 25.0948C30.9838 25.0948 31.0439 25.089 31.1039 25.0793C31.1466 25.0716 31.1776 25.0464 31.2183 25.0328C31.2706 25.0154 31.3171 24.9979 31.3655 24.9747C31.4314 24.9418 31.4895 24.9011 31.5438 24.8546C31.5825 24.8216 31.6174 24.7868 31.6523 24.748C31.6988 24.6938 31.7356 24.6395 31.7704 24.5756C31.7976 24.5271 31.8189 24.4768 31.8363 24.4244C31.8576 24.3605 31.8693 24.2985 31.877 24.2326C31.8809 24.1978 31.8983 24.1687 31.8983 24.1319C31.9003 23.9808 31.9778 21.0222 34.7406 18.2826C35.1533 18.4531 35.6048 18.5674 36.0872 18.5964C36.1783 18.6023 36.2693 18.6061 36.3604 18.6061C37.488 18.6061 38.6079 18.1934 39.4042 17.4785C40.3458 16.6299 40.5996 15.5468 40.8438 14.5006C41.1014 13.3943 41.3456 12.3519 42.3899 11.4122C42.6689 11.1603 42.7154 10.7593 42.603 10.3989V10.3989Z" fill="#F0A880"/>
</svg>
