<svg width="22" height="21" viewBox="0 0 22 21" fill="none" xmlns="http://www.w3.org/2000/svg">
<path d="M20.7266 7.33594C21.0781 7.72656 21.0781 8.3125 20.6875 8.66406L9.125 20.2266C8.77344 20.6172 8.1875 20.6172 7.83594 20.2266L1.27344 13.6641C0.882812 13.3125 0.882812 12.7266 1.27344 12.3359L2.79688 10.8125C3.1875 10.4219 3.77344 10.4219 4.125 10.8125L8.5 15.1484L17.8359 5.8125C18.1875 5.42188 18.8125 5.42188 19.1641 5.8125L20.7266 7.33594ZM8.03125 11.4766L3.65625 7.10156C3.42188 6.86719 3.42188 6.47656 3.65625 6.20312L5.45312 4.44531C5.6875 4.21094 6.07812 4.21094 6.3125 4.44531L8.5 6.63281L14.3984 0.695312C14.6328 0.460938 15.0234 0.460938 15.2969 0.695312L17.0547 2.45312C17.2891 2.72656 17.2891 3.11719 17.0547 3.35156L8.92969 11.4766C8.69531 11.75 8.26562 11.75 8.03125 11.4766Z" fill="#ED7839"/>
</svg>
