<svg width="177" height="77" viewBox="0 0 177 77" fill="none" xmlns="http://www.w3.org/2000/svg">
<g id="Group 1520">
<g id="Group 1519">
<path id="Vector" d="M18.6672 0.786547C7.06065 3.11108 0 12.9903 0 26.8407C0 35.4607 2.12787 41.369 6.96393 46.2117C15.4754 54.6381 28.9197 55.3161 36.5607 47.6645C38.3983 45.8243 40.0426 44.3715 40.2361 44.3715C40.4295 44.3715 40.623 45.9211 40.623 47.7614C40.623 50.8607 40.8164 51.1513 43.5246 51.1513H46.4262V39.5287V27.906H37.2377H28.0492V31.296V34.686H32.8852C38.6885 34.686 39.0754 35.945 34.723 40.9815C29.1131 47.374 19.6345 47.4709 13.8312 41.1752C8.31806 35.0733 7.44757 20.8356 12.1869 13.6683C17.6033 5.33875 32.982 5.82302 35.9803 14.3463C36.8508 16.9614 37.3344 17.252 41.2033 17.252C44.8787 17.252 45.459 16.9614 45.459 15.218C45.459 10.0847 39.0754 3.20793 32.4984 1.27083C27.2754 -0.278862 24.8574 -0.375717 18.6672 0.786547Z" fill="#341947"/>
<path id="Vector_2" d="M91.8848 26.4533V51.1514H95.7534H99.6227V26.4533V1.75513H95.7534H91.8848V26.4533Z" fill="#341947"/>
<path id="Vector_3" d="M160.557 7.85719C159.203 10.0848 158.042 12.2157 157.849 12.6031C157.655 13.0874 158.719 13.3779 160.267 13.3779C162.298 13.3779 164.329 12.1188 167.811 8.53515L172.55 3.69238H167.811C163.168 3.69238 162.878 3.88609 160.557 7.85719Z" fill="#341947"/>
<path id="Vector_4" d="M64.6101 18.2206C60.0642 18.9954 56.292 21.6105 55.1314 24.613C53.7773 28.0029 53.6806 27.9061 58.033 27.9061C60.838 27.9061 62.0953 27.4218 62.8691 25.9689C63.6428 24.5161 64.9002 24.0319 67.9953 24.0319C72.4445 24.0319 74.4757 25.291 74.4757 28.0998C74.4757 30.2306 71.574 31.7803 67.5117 31.7803C63.1593 31.7803 56.9691 33.6206 54.9379 35.364C52.5199 37.5916 51.8429 42.5312 53.4871 46.5023C56.3887 53.3791 66.0609 54.9287 71.6707 49.3111L74.3793 46.5991L74.8624 48.8268C75.4427 50.8608 76.023 51.1514 79.8924 51.1514C83.0842 51.1514 84.0511 50.8608 83.5673 49.9891C83.0842 49.3111 82.5038 43.2092 82.2137 36.4293C81.7298 24.9036 81.5361 23.8382 79.312 21.6105C76.5069 18.8985 69.9297 17.3489 64.6101 18.2206ZM73.9919 41.0784C72.9284 46.7929 66.7379 49.2142 62.8691 45.34C59.1937 41.6595 61.2248 38.2696 68.2854 36.5262C70.6068 35.9451 72.9284 34.8797 73.3151 34.2985C74.282 32.7489 74.7659 37.1074 73.9919 41.0784Z" fill="#341947"/>
<path id="Vector_5" d="M159.59 18.0269C154.174 18.7048 150.789 20.4482 149.434 23.0633C147.307 27.2282 147.597 27.9061 151.659 27.9061C154.174 27.9061 155.625 27.325 156.495 25.969C157.366 24.5162 158.719 24.0319 161.911 24.0319C166.651 24.0319 168.779 25.7753 167.812 28.7778C167.231 30.715 165.781 31.1992 156.786 32.3614C152.723 32.8457 150.789 33.6206 148.661 35.8482C146.146 38.3665 145.856 39.1414 146.34 43.0156C146.92 48.2458 148.951 50.764 153.787 52.2168C158.333 53.5728 163.556 52.0231 166.264 48.6332L168.198 46.2118L168.489 48.4395C168.682 50.2797 169.456 50.764 172.647 50.9577L176.517 51.2482L176.227 40.3036C175.936 27.325 174.872 22.6759 171.584 20.5451C168.875 18.7048 163.169 17.5426 159.59 18.0269ZM166.941 42.725C165.781 45.5338 164.91 46.3086 162.009 46.8898C157.946 47.6646 154.754 45.4369 154.754 41.9501C154.754 39.2382 156.108 38.0759 161.041 36.7199C163.169 36.1388 165.587 35.2671 166.361 34.686C168.489 33.3301 168.779 38.3665 166.941 42.725Z" fill="#341947"/>
<path id="Vector_6" d="M115.099 19.9639C110.264 22.579 107.845 27.906 107.942 35.6544C107.942 39.6255 108.619 43.1123 109.683 45.1463C114.229 53.9601 128.931 55.5098 136.088 48.052C143.729 40.0129 142.182 25.6784 133.283 20.1576C129.027 17.6394 119.742 17.5425 115.099 19.9639ZM128.64 25.0003C129.607 25.4846 130.865 27.3249 131.446 28.9714C135.024 39.4318 128.834 49.7953 121.193 46.1148C115.873 43.5966 114.519 30.4243 119.065 25.872C121 23.935 125.739 23.4507 128.64 25.0003Z" fill="#341947"/>
<g id="Clip path group">
<mask id="mask0_31_7" style="mask-type:luminance" maskUnits="userSpaceOnUse" x="0" y="58" width="177" height="19">
<g id="clip0_1358_36237">
<path id="Vector_7" d="M176.514 58.8052H0V76.481H176.514V58.8052Z" fill="white"/>
</g>
</mask>
<g mask="url(#mask0_31_7)">
<g id="Group">
<path id="Vector_8" d="M13.9353 66.7129H0V68.5735H13.9353V66.7129Z" fill="#341947"/>
<path id="Vector_9" d="M27.3765 71.8079C26.8926 72.2197 26.4257 72.5104 25.9757 72.6801C25.5305 72.8493 25.0515 72.9343 24.5386 72.9343C23.6918 72.9343 23.0411 72.7287 22.5862 72.3166C22.1313 71.8999 21.9039 71.3693 21.9039 70.7248C21.9039 70.3469 21.9887 70.0029 22.158 69.6928C22.3322 69.3778 22.5572 69.1259 22.833 68.9369C23.1136 68.748 23.4282 68.6051 23.7766 68.5081C24.033 68.4403 24.4201 68.3749 24.9378 68.3119C25.9926 68.1859 26.7693 68.0357 27.2676 67.8613C27.2725 67.682 27.2749 67.5681 27.2749 67.5197C27.2749 66.9867 27.1515 66.6111 26.9047 66.3932C26.5709 66.0976 26.0749 65.9498 25.4169 65.9498C24.8023 65.9498 24.3475 66.0588 24.0523 66.2769C23.762 66.4901 23.5467 66.8704 23.4063 67.4179L22.129 67.2435C22.2451 66.696 22.4362 66.2551 22.7023 65.9207C22.9685 65.5815 23.3532 65.3223 23.8564 65.143C24.3596 64.9589 24.9427 64.8668 25.6056 64.8668C26.2636 64.8668 26.7983 64.9444 27.2096 65.0994C27.6209 65.2545 27.9232 65.4507 28.1168 65.6881C28.3104 65.9207 28.4458 66.2163 28.5232 66.5748C28.5668 66.7977 28.5885 67.1999 28.5885 67.7813V69.5256C28.5885 70.7418 28.6152 71.5123 28.6685 71.8369C28.7265 72.1568 28.8378 72.4644 29.0023 72.76H27.6378C27.5023 72.4886 27.4152 72.1712 27.3765 71.8079ZM27.2676 68.886C26.7934 69.0799 26.0821 69.2447 25.1337 69.3803C24.5967 69.4578 24.2168 69.5451 23.9943 69.6419C23.7716 69.7389 23.5999 69.8818 23.4789 70.0708C23.3579 70.2548 23.2974 70.4608 23.2974 70.6885C23.2974 71.0373 23.4282 71.3281 23.6895 71.5607C23.9556 71.7933 24.3426 71.9096 24.8507 71.9096C25.354 71.9096 25.8015 71.8006 26.1934 71.5825C26.5854 71.3597 26.8733 71.0568 27.0571 70.674C27.1974 70.3784 27.2676 69.9424 27.2676 69.3658V68.886ZM30.6207 72.76V65.0413H31.7966V66.1388C32.3627 65.2908 33.1804 64.8668 34.2498 64.8668C34.7143 64.8668 35.14 64.9517 35.5272 65.1212C35.9191 65.286 36.2119 65.504 36.4054 65.7753C36.5989 66.0467 36.7344 66.3689 36.8118 66.742C36.8602 66.9842 36.8844 67.4082 36.8844 68.0139V72.76H35.578V68.0648C35.578 67.5318 35.5272 67.1345 35.4256 66.8728C35.3239 66.6064 35.1425 66.3956 34.8812 66.2405C34.6247 66.0806 34.3224 66.0007 33.974 66.0007C33.4176 66.0007 32.936 66.1775 32.5296 66.5312C32.128 66.8849 31.9272 67.556 31.9272 68.5445V72.76H30.6207ZM43.9246 71.8079C43.4408 72.2197 42.9738 72.5104 42.5239 72.6801C42.0787 72.8493 41.5997 72.9343 41.0868 72.9343C40.24 72.9343 39.5893 72.7287 39.1344 72.3166C38.6795 71.8999 38.4521 71.3693 38.4521 70.7248C38.4521 70.3469 38.5369 70.0029 38.7062 69.6928C38.8804 69.3778 39.1054 69.1259 39.3812 68.9369C39.6618 68.748 39.9763 68.6051 40.3246 68.5081C40.5811 68.4403 40.9683 68.3749 41.4859 68.3119C42.5408 68.1859 43.3174 68.0357 43.8158 67.8613C43.8207 67.682 43.8231 67.5681 43.8231 67.5197C43.8231 66.9867 43.6997 66.6111 43.4529 66.3932C43.1191 66.0976 42.6231 65.9498 41.9651 65.9498C41.3505 65.9498 40.8957 66.0588 40.6005 66.2769C40.3102 66.4901 40.0949 66.8704 39.9545 67.4179L38.6771 67.2435C38.7933 66.696 38.9844 66.2551 39.2505 65.9207C39.5167 65.5815 39.9013 65.3223 40.4046 65.143C40.9078 64.9589 41.4909 64.8668 42.1537 64.8668C42.8118 64.8668 43.3465 64.9444 43.7578 65.0994C44.169 65.2545 44.4714 65.4507 44.665 65.6881C44.8586 65.9207 44.994 66.2163 45.0714 66.5748C45.1149 66.7977 45.1367 67.1999 45.1367 67.7813V69.5256C45.1367 70.7418 45.1634 71.5123 45.2166 71.8369C45.2747 72.1568 45.386 72.4644 45.5504 72.76H44.186C44.0505 72.4886 43.9634 72.1712 43.9246 71.8079ZM43.8158 68.886C43.3415 69.0799 42.6303 69.2447 41.6819 69.3803C41.1449 69.4578 40.765 69.5451 40.5424 69.6419C40.3198 69.7389 40.1481 69.8818 40.0271 70.0708C39.9061 70.2548 39.8456 70.4608 39.8456 70.6885C39.8456 71.0373 39.9763 71.3281 40.2376 71.5607C40.5038 71.7933 40.8908 71.9096 41.3989 71.9096C41.9021 71.9096 42.3497 71.8006 42.7416 71.5825C43.1336 71.3597 43.4215 71.0568 43.6053 70.674C43.7456 70.3784 43.8158 69.9424 43.8158 69.3658V68.886ZM47.1762 63.6095V62.105H48.4827V63.6095H47.1762ZM47.1762 72.76V65.0413H48.4827V72.76H47.1762ZM49.956 70.4559L51.248 70.2524C51.3205 70.7709 51.5213 71.1682 51.8504 71.4444C52.1843 71.7206 52.6488 71.8586 53.2439 71.8586C53.8439 71.8586 54.2891 71.7375 54.5794 71.4953C54.8697 71.2481 55.0149 70.9599 55.0149 70.6303C55.0149 70.3348 54.8866 70.1022 54.6302 69.9326C54.4512 69.8163 54.006 69.6686 53.2947 69.4894C52.3366 69.2471 51.6713 69.0387 51.2988 68.8643C50.931 68.685 50.6503 68.4403 50.4569 68.1302C50.2682 67.8153 50.1737 67.4688 50.1737 67.0909C50.1737 66.7468 50.2511 66.4295 50.406 66.1388C50.5657 65.8432 50.781 65.5985 51.052 65.4046C51.2552 65.2545 51.5311 65.1285 51.8795 65.0268C52.2327 64.9201 52.61 64.8668 53.0116 64.8668C53.6165 64.8668 54.1464 64.9541 54.6011 65.1285C55.0608 65.303 55.3995 65.5403 55.6173 65.8408C55.835 66.1363 55.985 66.5336 56.0673 67.0327L54.7899 67.2072C54.7318 66.8098 54.5625 66.4997 54.2818 66.2769C54.006 66.054 53.614 65.9425 53.1061 65.9425C52.506 65.9425 52.0778 66.0419 51.8213 66.2405C51.5649 66.4391 51.4367 66.6717 51.4367 66.9383C51.4367 67.1078 51.4899 67.2604 51.5964 67.3961C51.7028 67.5366 51.8697 67.6529 52.0971 67.745C52.2278 67.7935 52.6124 67.9049 53.2511 68.0793C54.1753 68.3264 54.8189 68.5299 55.1817 68.6899C55.5495 68.8449 55.8374 69.0727 56.0455 69.3731C56.2535 69.6734 56.3576 70.0465 56.3576 70.4923C56.3576 70.9283 56.2293 71.3403 55.9729 71.7279C55.7213 72.1107 55.3559 72.4087 54.8769 72.6219C54.3979 72.8304 53.8561 72.9343 53.2511 72.9343C52.2496 72.9343 51.4851 72.7258 50.9577 72.3093C50.4351 71.8926 50.1012 71.2748 49.956 70.4559ZM67.3245 70.2742L68.6744 70.4414C68.4615 71.2312 68.0671 71.8441 67.4913 72.2802C66.9155 72.7164 66.18 72.9343 65.2848 72.9343C64.1575 72.9343 63.2624 72.5879 62.5994 71.895C61.9414 71.1973 61.6124 70.2209 61.6124 68.966C61.6124 67.6674 61.9462 66.6596 62.6139 65.9425C63.2817 65.2254 64.1478 64.8668 65.2123 64.8668C66.2429 64.8668 67.0849 65.2181 67.7381 65.9207C68.3913 66.6233 68.718 67.6117 68.718 68.886C68.718 68.9636 68.7154 69.0799 68.7106 69.2349H62.9623C63.0107 70.0829 63.2502 70.7321 63.6809 71.1828C64.1115 71.6334 64.6486 71.8586 65.2921 71.8586C65.7712 71.8586 66.18 71.7327 66.5187 71.4807C66.8574 71.2288 67.126 70.8267 67.3245 70.2742ZM63.035 68.1593H67.3389C67.2809 67.51 67.1163 67.023 66.8453 66.6984C66.4292 66.1945 65.8897 65.9425 65.2268 65.9425C64.6268 65.9425 64.1212 66.1436 63.7099 66.5458C63.3034 66.9479 63.0784 67.4858 63.035 68.1593ZM74.4589 75.7179V65.0413H75.6493V66.0443C75.9301 65.6518 76.2471 65.3587 76.6003 65.1649C76.9536 64.9662 77.3816 64.8668 77.885 64.8668C78.543 64.8668 79.1233 65.0364 79.6268 65.3756C80.1302 65.7148 80.5096 66.1945 80.7664 66.8147C81.0224 67.43 81.1508 68.106 81.1508 68.8425C81.1508 69.6322 81.0079 70.3445 80.7228 70.9792C80.4421 71.6091 80.0308 72.0937 79.4889 72.4329C78.9514 72.7672 78.3856 72.9343 77.7907 72.9343C77.3548 72.9343 76.963 72.842 76.6148 72.6583C76.271 72.474 75.9881 72.2414 75.7654 71.9604V75.7179H74.4589ZM75.6421 68.9442C75.6421 69.9375 75.843 70.6716 76.2442 71.1464C76.646 71.6212 77.1321 71.8586 77.703 71.8586C78.284 71.8586 78.7802 71.614 79.1915 71.1247C79.6072 70.6303 79.8154 69.8672 79.8154 68.8351C79.8154 67.8516 79.6122 67.1151 79.206 66.6257C78.8041 66.1363 78.3225 65.8916 77.761 65.8916C77.2046 65.8916 76.7113 66.1533 76.2804 66.6766C75.8546 67.195 75.6421 67.9509 75.6421 68.9442ZM82.7184 72.76V65.0413H83.8943V66.2114C84.1947 65.6639 84.4703 65.303 84.722 65.1285C84.9781 64.9541 85.2588 64.8668 85.5635 64.8668C86.0038 64.8668 86.4514 65.0074 86.9062 65.2884L86.4565 66.5021C86.1373 66.3132 85.8174 66.2187 85.4982 66.2187C85.2131 66.2187 84.9563 66.3059 84.7293 66.4803C84.5015 66.6499 84.3397 66.8873 84.2425 67.1926C84.0975 67.6578 84.0249 68.1665 84.0249 68.7188V72.76H82.7184ZM87.1964 68.9007C87.1964 67.4712 87.5932 66.4125 88.3868 65.7245C89.0498 65.1527 89.8579 64.8668 90.8111 64.8668C91.8709 64.8668 92.7371 65.2157 93.4095 65.9134C94.082 66.6064 94.4186 67.5657 94.4186 68.7916C94.4186 69.7849 94.2684 70.5674 93.9681 71.1391C93.6736 71.7061 93.2405 72.1469 92.6689 72.4619C92.1031 72.7767 91.4836 72.9343 90.8111 72.9343C89.7324 72.9343 88.859 72.5879 88.1909 71.895C87.5279 71.2021 87.1964 70.204 87.1964 68.9007ZM88.5391 68.9007C88.5391 69.8891 88.7546 70.6303 89.1855 71.1247C89.6156 71.614 90.1582 71.8586 90.8111 71.8586C91.4596 71.8586 91.9993 71.6116 92.4295 71.1174C92.8604 70.6231 93.0759 69.8696 93.0759 68.857C93.0759 67.9024 92.8582 67.1805 92.4223 66.6911C91.9921 66.1969 91.4546 65.9498 90.8111 65.9498C90.1582 65.9498 89.6156 66.1945 89.1855 66.6839C88.7546 67.1732 88.5391 67.9122 88.5391 68.9007ZM100.986 69.9326L102.272 70.0998C102.131 70.9866 101.771 71.6818 101.19 72.1857C100.614 72.6851 99.9056 72.9343 99.0634 72.9343C98.0086 72.9343 97.1592 72.5903 96.5165 71.9023C95.8774 71.2094 95.5575 70.2185 95.5575 68.9296C95.5575 68.0963 95.696 67.3671 95.9717 66.742C96.2481 66.117 96.6659 65.6494 97.2266 65.3393C97.7939 65.0243 98.4076 64.8668 99.0714 64.8668C99.9085 64.8668 100.593 65.08 101.125 65.5064C101.657 65.928 101.998 66.5288 102.148 67.3089L100.878 67.5051C100.757 66.9867 100.542 66.5966 100.232 66.335C99.9266 66.0733 99.5567 65.9425 99.1214 65.9425C98.4635 65.9425 97.9281 66.1799 97.5175 66.6548C97.1062 67.1248 96.9009 67.871 96.9009 68.8934C96.9009 69.9302 97.099 70.6837 97.4958 71.1536C97.8919 71.6236 98.4105 71.8586 99.0489 71.8586C99.5617 71.8586 99.9897 71.7012 100.334 71.3862C100.677 71.0713 100.895 70.5868 100.986 69.9326ZM108.666 70.2742L110.016 70.4414C109.803 71.2312 109.408 71.8441 108.832 72.2802C108.257 72.7164 107.522 72.9343 106.626 72.9343C105.499 72.9343 104.603 72.5879 103.941 71.895C103.282 71.1973 102.954 70.2209 102.954 68.966C102.954 67.6674 103.288 66.6596 103.955 65.9425C104.623 65.2254 105.489 64.8668 106.553 64.8668C107.585 64.8668 108.426 65.2181 109.079 65.9207C109.733 66.6233 110.06 67.6117 110.06 68.886C110.06 68.9636 110.057 69.0799 110.052 69.2349H104.303C104.352 70.0829 104.591 70.7321 105.023 71.1828C105.453 71.6334 105.99 71.8586 106.633 71.8586C107.113 71.8586 107.522 71.7327 107.86 71.4807C108.198 71.2288 108.467 70.8267 108.666 70.2742ZM104.377 68.1593H108.68C108.622 67.51 108.458 67.023 108.187 66.6984C107.77 66.1945 107.231 65.9425 106.568 65.9425C105.968 65.9425 105.463 66.1436 105.051 66.5458C104.645 66.9479 104.42 67.4858 104.377 68.1593ZM116.94 70.2742L118.29 70.4414C118.077 71.2312 117.682 71.8441 117.107 72.2802C116.531 72.7164 115.796 72.9343 114.901 72.9343C113.773 72.9343 112.878 72.5879 112.215 71.895C111.557 71.1973 111.229 70.2209 111.229 68.966C111.229 67.6674 111.561 66.6596 112.23 65.9425C112.897 65.2254 113.764 64.8668 114.828 64.8668C115.859 64.8668 116.7 65.2181 117.353 65.9207C118.007 66.6233 118.333 67.6117 118.333 68.886C118.333 68.9636 118.331 69.0799 118.326 69.2349H112.578C112.626 70.0829 112.866 70.7321 113.296 71.1828C113.728 71.6334 114.264 71.8586 114.908 71.8586C115.387 71.8586 115.796 71.7327 116.134 71.4807C116.472 71.2288 116.741 70.8267 116.94 70.2742ZM112.65 68.1593H116.955C116.896 67.51 116.731 67.023 116.46 66.6984C116.045 66.1945 115.506 65.9425 114.842 65.9425C114.242 65.9425 113.737 66.1436 113.325 66.5458C112.919 66.9479 112.695 67.4858 112.65 68.1593ZM124.938 72.76V71.786C124.449 72.5516 123.731 72.9343 122.783 72.9343C122.168 72.9343 121.602 72.765 121.084 72.4256C120.572 72.0864 120.172 71.614 119.887 71.0084C119.606 70.3978 119.466 69.6976 119.466 68.9079C119.466 68.1374 119.594 67.4397 119.851 66.8147C120.107 66.1847 120.491 65.7027 121.004 65.3683C121.517 65.034 122.09 64.8668 122.725 64.8668C123.189 64.8668 123.603 64.9662 123.966 65.1649C124.329 65.3587 124.624 65.6131 124.852 65.928V62.105H126.15V72.76H124.938ZM120.808 68.9079C120.808 69.8964 121.016 70.6352 121.433 71.1247C121.849 71.614 122.34 71.8586 122.906 71.8586C123.476 71.8586 123.96 71.626 124.357 71.1609C124.76 70.6909 124.96 69.9763 124.96 69.0169C124.96 67.9606 124.757 67.1853 124.35 66.6911C123.943 66.1969 123.443 65.9498 122.847 65.9498C122.267 65.9498 121.781 66.1872 121.389 66.6621C121.001 67.1369 120.808 67.8855 120.808 68.9079ZM128.219 63.6095V62.105H129.526V63.6095H128.219ZM128.219 72.76V65.0413H129.526V72.76H128.219ZM131.521 72.76V65.0413H132.697V66.1388C133.263 65.2908 134.081 64.8668 135.15 64.8668C135.615 64.8668 136.04 64.9517 136.428 65.1212C136.819 65.286 137.113 65.504 137.306 65.7753C137.499 66.0467 137.635 66.3689 137.712 66.742C137.76 66.9842 137.784 67.4082 137.784 68.0139V72.76H136.478V68.0648C136.478 67.5318 136.428 67.1345 136.326 66.8728C136.225 66.6064 136.043 66.3956 135.781 66.2405C135.525 66.0806 135.223 66.0007 134.875 66.0007C134.318 66.0007 133.836 66.1775 133.43 66.5312C133.029 66.8849 132.828 67.556 132.828 68.5445V72.76H131.521ZM139.556 73.3992L140.826 73.5888C140.879 73.9811 141.027 74.2665 141.268 74.446C141.593 74.6886 142.035 74.8092 142.597 74.8092C143.202 74.8092 143.669 74.6886 143.997 74.446C144.327 74.2041 144.549 73.8648 144.666 73.429C144.734 73.1624 144.765 72.6024 144.759 71.7497C144.189 72.4231 143.477 72.76 142.626 72.76C141.567 72.76 140.746 72.3771 140.165 71.6116C139.585 70.846 139.295 69.9278 139.295 68.857C139.295 68.1205 139.428 67.4422 139.694 66.822C139.96 66.1969 140.345 65.7148 140.847 65.3756C141.356 65.0364 141.951 64.8668 142.633 64.8668C143.543 64.8668 144.293 65.2351 144.883 65.9715V65.0413H146.088V71.7133C146.088 72.9147 145.964 73.7653 145.718 74.2644C145.476 74.7685 145.088 75.1658 144.557 75.4564C144.029 75.747 143.378 75.8923 142.604 75.8923C141.684 75.8923 140.942 75.6838 140.376 75.2675C139.81 74.8557 139.536 74.2331 139.556 73.3992ZM140.637 68.7625C140.637 69.7752 140.838 70.514 141.239 70.9792C141.641 71.4444 142.144 71.6769 142.749 71.6769C143.349 71.6769 143.852 71.4468 144.259 70.9866C144.666 70.5214 144.869 69.7946 144.869 68.8061C144.869 67.8613 144.658 67.149 144.238 66.6693C143.821 66.1896 143.318 65.9498 142.728 65.9498C142.147 65.9498 141.654 66.1872 141.247 66.6621C140.84 67.1321 140.637 67.8322 140.637 68.7625ZM147.546 70.4559L148.839 70.2524C148.911 70.7709 149.112 71.1682 149.441 71.4444C149.775 71.7206 150.24 71.8586 150.834 71.8586C151.434 71.8586 151.88 71.7375 152.17 71.4953C152.46 71.2481 152.606 70.9599 152.606 70.6303C152.606 70.3348 152.477 70.1022 152.221 69.9326C152.042 69.8163 151.597 69.6686 150.885 69.4894C149.928 69.2471 149.262 69.0387 148.89 68.8643C148.522 68.685 148.241 68.4403 148.047 68.1302C147.859 67.8153 147.765 67.4688 147.765 67.0909C147.765 66.7468 147.842 66.4295 147.997 66.1388C148.157 65.8432 148.372 65.5985 148.643 65.4046C148.846 65.2545 149.122 65.1285 149.471 65.0268C149.823 64.9201 150.2 64.8668 150.602 64.8668C151.207 64.8668 151.738 64.9541 152.192 65.1285C152.652 65.303 152.99 65.5403 153.208 65.8408C153.426 66.1363 153.576 66.5336 153.658 67.0327L152.38 67.2072C152.322 66.8098 152.153 66.4997 151.873 66.2769C151.597 66.054 151.205 65.9425 150.697 65.9425C150.097 65.9425 149.669 66.0419 149.412 66.2405C149.156 66.4391 149.027 66.6717 149.027 66.9383C149.027 67.1078 149.08 67.2604 149.187 67.3961C149.294 67.5366 149.461 67.6529 149.688 67.745C149.819 67.7935 150.203 67.9049 150.842 68.0793C151.766 68.3264 152.41 68.5299 152.772 68.6899C153.14 68.8449 153.428 69.0727 153.636 69.3731C153.844 69.6734 153.949 70.0465 153.949 70.4923C153.949 70.9283 153.82 71.3403 153.563 71.7279C153.312 72.1107 152.947 72.4087 152.467 72.6219C151.989 72.8304 151.447 72.9343 150.842 72.9343C149.84 72.9343 149.075 72.7258 148.548 72.3093C148.026 71.8926 147.693 71.2748 147.546 70.4559Z" fill="#341947"/>
<path id="Vector_10" d="M176.513 66.7129H162.578V68.5735H176.513V66.7129Z" fill="#341947"/>
</g>
</g>
</g>
</g>
</g>
</svg>
